/* XPM */
static char *result[] = {
/* columns rows colors chars-per-pixel */
"64 64 180 2 ",
"   c #010100",
".  c #080A06",
"X  c #0A0C04",
"o  c #0E1306",
"O  c #141606",
"+  c #1C1102",
"@  c #141C0A",
"#  c #141410",
"$  c #281600",
"%  c #271801",
"&  c #2A1A02",
"*  c #341D00",
"=  c #1A230C",
"-  c #1D2A0F",
";  c #192513",
":  c #362406",
">  c #24320F",
",  c #26291A",
"<  c #2A3715",
"1  c #2C341C",
"2  c #323E1F",
"3  c #282720",
"4  c #363529",
"5  c #3E3D30",
"6  c #412601",
"7  c #472B02",
"8  c #473007",
"9  c #593603",
"0  c #623900",
"q  c #683F02",
"w  c #37491B",
"e  c #34551E",
"r  c #3F4C26",
"t  c #4D4D13",
"y  c #4C5719",
"u  c #734201",
"i  c #4B621F",
"p  c #546A1F",
"a  c #415323",
"s  c #49473A",
"d  c #50503F",
"f  c #536D2A",
"g  c #4F7025",
"h  c #527324",
"j  c #597C28",
"k  c #6B7E3E",
"l  c #525340",
"z  c #686A52",
"x  c #854D01",
"c  c #975700",
"v  c #995701",
"b  c #9C5900",
"n  c #A25C01",
"m  c #A85F01",
"M  c #A76001",
"N  c #AA6100",
"B  c #AA620A",
"V  c #AE6815",
"C  c #B67828",
"Z  c #B87D31",
"A  c #5D8028",
"S  c #578F35",
"D  c #45923C",
"F  c #4B963C",
"G  c #4E993C",
"H  c #5E9B37",
"J  c #539438",
"K  c #539C3C",
"L  c #5A9F3C",
"P  c #608429",
"I  c #658D2D",
"U  c #67912E",
"Y  c #638832",
"T  c #699130",
"R  c #6E9A32",
"E  c #719D34",
"W  c #56A03D",
"Q  c #5CA33D",
"!  c #62A63D",
"~  c #6AA239",
"^  c #65AA3D",
"/  c #6BAD3E",
"(  c #76A535",
")  c #79A936",
"_  c #70AE3D",
"`  c #7AA938",
"'  c #6EB03D",
"]  c #74B33E",
"[  c #7CB53D",
"{  c #7CBA3E",
"}  c #6DAD43",
"|  c #7BB740",
" . c #78B447",
".. c #7EBB40",
"X. c #BB8239",
"o. c #81B53B",
"O. c #83BD3E",
"+. c #86C13E",
"@. c #8CC63F",
"#. c #8EC83F",
"$. c #90C93F",
"%. c #85AF4E",
"&. c #84BD41",
"*. c #87BC4A",
"=. c #8F8C70",
"-. c #948F71",
";. c #C08B47",
":. c #C49252",
">. c #C7985C",
",. c #CA9D65",
"<. c #CBA068",
"1. c #CEA571",
"2. c #D2AB7A",
"3. c #86C240",
"4. c #8DC640",
"5. c #8EC840",
"6. c #8EC44A",
"7. c #90C742",
"8. c #93C944",
"9. c #98CA46",
"0. c #91C54B",
"q. c #94CA4C",
"w. c #9BCC4A",
"e. c #8FC352",
"r. c #93C653",
"t. c #95CA52",
"y. c #9ACD55",
"u. c #96C75A",
"i. c #99C75D",
"p. c #9DCE5B",
"a. c #A1CE4E",
"s. c #A0CF5A",
"d. c #A5D051",
"f. c #A2D05D",
"g. c #9AC762",
"h. c #9ECB62",
"j. c #9FCA6F",
"k. c #A2CF64",
"l. c #A4CD6C",
"z. c #A4D164",
"x. c #A8D365",
"c. c #A5D16B",
"v. c #ABD46C",
"b. c #B1D86F",
"n. c #AED573",
"m. c #B1D674",
"M. c #B3D975",
"N. c #B3D57C",
"B. c #B8D67E",
"V. c #B7DB7C",
"C. c #9E9E82",
"Z. c #B0AA8C",
"A. c #D6B386",
"S. c #C1BEA3",
"D. c #BDDA81",
"F. c #C3DD83",
"G. c #C9DF87",
"H. c #C4E182",
"J. c #CBE385",
"K. c #CAE489",
"L. c #D3E386",
"P. c #D1E58A",
"I. c #D9E68B",
"U. c #D7E88B",
"Y. c #DCE98C",
"T. c #E3ED8B",
"R. c #E7EF8A",
"E. c #EAF08C",
"W. c #CBC4A3",
"Q. c #D4D2B4",
"!. c #DAD5B3",
"~. c #E2CAAB",
"^. c #E4D6B8",
"/. c #E3E0BA",
"(. c #EFE7C0",
"). c #F5EDC5",
"_. c #FDF5CB",
"`. c #F3E9DC",
"'. c #F7F1E8",
"]. c #F8F2EB",
/* pixels */
"@.#.@.#.#.4.#.@.@.@.#.@.#.@.@.[ 4.@.@.@.5.#.4.4.4.5.#.@.@.#.@.@.#.@.@.@.@.@.#.@.4.@.@.@.@.4.@.#.@.#.4.@.[ +.@.@.7.4.#.4.@.9.5.#.",
"@.@.@.@.#.4.4.+.@.@.#.#.@.@.@.@.@.@.#.@.5.@.5.a.4.5.@.#.$.7.@.#.@.#.O.O.@.@.@.#.@.+.@.O.Q @.@.#.#.@.@.#.#.4.#.#.4.#.#.4.@.9.8.@.",
"a.#.#.#.] &./ ^ @.@.@.4.w.@.@.#.#.#.@.@.@.#.@.5.@.#.#.@.7.w.@.#.@.#.@.@.@.#.#.@.@.] Q L / +.#.4.@.4.@.#.@.#.#.#.7.@.@.4.@.@.@.@.",
"9.@.@.@.] F K { @.@.4.#.9.@.#.@.@.+.O.4.Q O.@.5.@.{ #.@.@.@.@.@.@.@.@.@.@.@.#.@.4.+.G ] [ @.#.@.@.d.7.@.@.#.@.#.#.+.@.Q O.#.@.@.",
"@.#.@.@.O.! +.+.#.#.#.4.#.#.#.4.4.+.G / L 4.#.4.@.@.@.#.@.4.@.@.@.@.#.#.w.9.@.@.#.@.O.@.@.7.4.4.#.4.@.@.@.#.4.#.+.G } K +.@.4.5.",
"#.@.9.7.@.4.#.@.4.4.4.4.O.#.7.#.#.+.Q ' ] 4.9.#.4.@.#.#.#.@.{ @.Q ] #.@.8.$.@.#.7.4.@.4.@.O.@.@.#.4.@.@.4.4.4.#.+.Q ' [ @.@.5.5.",
"#.#.w.8.@.4.#.#.#.#.#.@.o.@.#.#.@.@.+.4.4.9.w.#.#.#.@.4.@.@.K / D +.@.#.4.@.#.@.#.@.@.#.@.O.@.@.@.4./ { #.#.@.#.4.+.#.#.#.@.@.@.",
"@.@.@.@.4.4.4.w.#.4.#.#.4.@.#.@.@.z.5.4.4.@.#.7.4.#.b.J.q.+./ / { +.#.#.7.$.7.+.+.$.4.@.@.$.$.3.K / G @.#.#.4.#.#.7.#.4.@.#.@.#.",
"@.@.@.@.4.+.#.w.#.4.#.#.@.@.@.@.k.T.n.4.4.4.4.#.@.@.n.G.0.#.+.@.4.@.#.#.5.5.4.+.@.#.s.M.4.4.4.+.! ^ / @.4.#.5.4.#.4.@.4.d.4.#.[ ",
"#.@.] +.' Q #.#.4.#.#.@.O.] @.@.4.n.0.4.7.4.@.' @.$.+.4.#.@.@.#.#.4.#.@.5.#.#.#.@.@.D.Y.q.$.#.@.o.+.@.@.4.#.#.4.#.4.@.#.7.#.#.@.",
"@.@.{ F W  .+.#.#.#.Q { D 6.7.4.#.@.4.@./ ] W / @.@.#.+.@.@.@.@.@.[ @.@.5.5.4.@.@.4.6.r.@.@.@.@.4.4.#.#.4.5.4.9.#.#...#.' / @.#.",
"@.@.O.Q +.O.#.@.4.@.] K Q 4.4.4.4.4.4.4.{ F ^ ..4.@.#.O.+.@.#.#.@.@.@.@.4.5.@.#.#.@.#.@.@.@.$.@.#.4.#.#.#.#.4.w.#.#.Q / D +.4.@.",
"@.#.@.@.#.#.4.@.@.@.{ { 4.@.@.#.@.x.H.7.O.[ @.@.y.4.4.@.#.@.@.@.@.@.@.@.p.J.t.@.{ @.' ^ #.@.O.$.#.@.4.@.#.@.#.y.#.+.] Q [ O.@.@.",
"4.4.@.#.#.4.#.w.9.#.@.@.4.4.@.#.@.m.L.t.#.@.@.p.T.n.#.4.#.w.7.#.4.@.#.@.z.I.g.4.^ ^ D { @.@.O.@.#.#.#.#.@.4.n.T.s.#.+.+.@.@.#.#.",
"w.9.@.#.#.#.#.7.7.@.@.#.@.@.@.] @.4.6.@.#.@.@.0.B.t.#.@.#.7.#.@.$.@.#.#.@.e.@.@.{ Q [ +.@.@.#.#.#.@.@.#.o.+.r.B.7.4.@.@.@.@.@.] ",
"@.@.#.@.#.7.4.#.@.#.@.@.{ / ] K +.@.@.@.#.@.$.4.+.@.@.#.+.@.@.#.@.@.+.#.^ O.@.@.3.+.@.4.@.@.@.@.@.#.@.@.4.@.@.@.#.#.@.@.{ / ] G ",
"@.@.@.] @.#.@.#.@.@.4.@.@.G Q ^ O.$.@.@.9.$.$.@.@.{ O.] W @.#.#.@.O.K ' K 3.4.4.@.#.@.7.d.@.@.#.@.+.] #.@.4.#.#.4.#.$.@.@.G ! ^ ",
"] ' ^ Q +.@.@.O.4.^ { @.+./ O.@.@.$.@.@.9.$.@.4.@.O.G K ] +.#.#.#.O.L ^ ] 4.4.4.7.a.@.$.@.@.@.! { K ] @.#.@.@.@.4.#.+.@.+._ O.O.",
"+.D ! _ 4.v.@.K / D +.@.$.@.@.@.@.@.@.@.@.@.@.7.@.+.Q { O.@.o.w                   X I @.@.$.+.{ D Q { @.@.#.w.7.#.#.{ @.@.@.7.$.",
"+.] +.@.n.E.l.^ ^ ] +.4.@.@.@.@.@.@.@.[ @.@.@.$.@.@.4.#.@.( P t * * * * * * * * * : p I o.@.@.O.[ +.@.@.#.#.9.#.4.#.@.@.@.@.$.@.",
"#.#.#.4.6.l.4.&.+.7.$.9.m.q.w.#.@.#.4.@.@.@.7.4.4.#.4.@.@.p O q n n b M n n b n n b : = R @.@.@.@.@.@.@.#.@.#.#.#.7.@.4.@.7.@.@.",
"#.#.4.4.4.p.@.4.$.+.@.c.E.c.9.@.#.#.@.@.@.@.4.$.#.#.+.R h t 7 x B :.<.<.:.B Z ,.Z m q 8 i j #.$.4.@.@.@.4.@.4.#.#.4.@.#.@.a.8.#.",
"[ 4.5.@.n.E.c.#.@.O.+.@.j.+.4.#.@.{ ^ $.#.#.#.4.#.@.+.A o 9 M B V ^.].'.~.V >.].1.m M c & o #.@.#.@.#.[ 4.#.#.#.#.@.@.@.@.@.@.#.",
"@.v.J.q.r.B.4.t.y.#.4.@.@.#.#.] @.F { @.#.#.#.w.w.) i t 0 x B ,.A.2.1.1.>.B Z 1.Z m N v % X 4.#.#.@.@.@.#.4.4.] +.W { @.#.#.@.@.",
"@.c.G.0.@.O.5.P.P.5.4.8.#.@.@.' W / o.3.@.] ' 4.4.R X 6 m N V A.].X.n m m m N m m N m b $ X V.q.#.#.@.@.@.4.4.L ^ F 3.4.4.5.5.5.",
"@.@.} O.' Q 4.h.h.4.@.w.9.4.@.{ Q @.4.W / D 4.4.+.R X 6 m >.~.1.;.V N N N N N N N N N b $ X T.h.@.@.#.#.@.$.+./ ' &.@.4.4.4.5.#.",
"7.4.{ G L  .+.@.@.q.H.y.@.@.@.@.4.4.3.] L _ 3.o.g y 9 u N A.'.,.m N N N N N N N N N N b $ X u.@.q.H.y.8.a.@.@.4.@.4.#.@.#.#.5.5.",
"@.@.3.Q O.+.4.#.#.h.Y.c.@.@.@.@.@.7.@.O.6.v.4.) = $ n N m 2.`.>.N N N N N N N N N N m b $ X o.4.p.I.v.#.7.@.$.@.4.#.@.4.{ ] #.#.",
"#.@.@.@.@.@.#.#.#.@.e.4.@.{ 3.@.q.K.s.@.n.E.c.( = $ b N N Z :.C N N N N N N N N N N N v $ X +.#.@.6.3.4.t.@.#.@.#.7.Q ] D { @.#.",
"@.#.$.@.@.@.7.7.@.@.3./ { G +.#.p.L.l.@.4.l.+.) = $ n N N N N N N N N N N N N N N M N v $ X @.4.@.@.4.F.I.t.O.+.4.+.] K ^ O.@.#.",
"#.@.w.9.@.@.a.8.@.@.@.L Q ! +.4.+.6.4.@.4.a.@.) = % n N N N N N N N N N N N N N N N N v $ X #.@.@.#.@.h.m.7.+.@.#.@.&.*.@.@.@.@.",
"@.@.@.@.#.$.@.4.#.@.+./ O.+.4.D.w.4.4.4.4.@.4.` ; $ b N N N N N N N N N N N N N N N N v $ X @.+.Q @.4.@.@.@.@.x.x.@.7.9.@.@.@.@.",
"@.@.@.@.@.#.#.4.#.@.@.@.@.@.p.R.N.#.@.[ @.@.4.%., % n N N N N N N N N N N N N N M m u 0 y e ^ D { b.P.q.@.@.5.P.P.4.@.#.@.4.#.@.",
"#.@.@.O.@.] ' 4.@.@.4.@.@.@.@.i.4.@.@.r.4.@.4.( = & b N N N N N N N N N N N N N m m : @ T [ G ] o.l.F.6.+.@.4.r.r.4.@.4.#.@.@.#.",
"@.@.@.Q / D +.4.#.@.@.@.@.@.@.@.4.@.k.T.z.#.4.) = & b N N N N N N N N N M M N N u : i A o.O.O.@.@.3.} +.K { @.@.4.4.#.4.@.5.#.@.",
"@.@.&.] Q ] +.@.#.4.[ @.@.#.#.@.@.4.t.K.u.@.o.( 1 : c m N N N N N N N N N m m N 9 @ U 4.#.#.#.@.@.+.K Q Q @.#.#.4.#.#.+.+.@.#.@.",
"#.#.@.O.@.4.@.#.4.4.@.#.#.#.#.#.@.@.@.&.3.] e r C.-.: 9 m N N N N N N N N 0 * * y U R 3.#.#.#.#.@.+.^ { &.4.#.#.+.} &.K +.@.@.@.",
"#.4.#.$.4.4.@.@.#.#.#.#.5.5.4.@.[ @.` J } g 2 4 Q.W.3 8 c c c c v c c v c 8 o X h Q Q 4.4.4.4.4.#.#.@.@.4.@.8.4.3.G Q Q @.4.5.5.",
"#.@.4.7.4.#.4.#.@.#.@.4.4.5.4.4.5.4.@ @ # ; Z.!.).(.Q.=.+ + + + + + + + + p ( S H ] ] @.#.4.#.$.4.#.w.9.@.#.4.4.4./ { @.@.4.#.4.",
"O.#.#.#.4.w.#.#.4.#.#.4.4.#.#.#.4.4.  # 5 s S._._.(.S.=.< > > > > - > 1 4 Y +...&.@.@.#.#.#.@.@.4.#.7.7.#.@.#.{ { 4.4.4.@.+.#.#.",
"O.@.#.@.#.w.#.@.&.@.] ' 4.#.#.@.4.#.  s Q./.)._._.W.3 a ` [ ~ H H J [ ` %.O.@.@.#.#.@.#.#.@.#.+.@.@.#.#.+.Q &.K { #.#.#.@.O.#.#.",
"@.@.@.#.@.@.@.#.! ] D ..4.#.@.@.#.4.. d /.)._.(.Z.=.w h +.4.3.D ^ *.7.@.k.q.#.y.y.#.#.@.{ [ { K +.#.@.4.4.} K L +.4.#.4.@.@.#.@.",
"@.@.#.@.7.$.4.4.{ K ] O.4.4.4.@.$.#.I k l -.).!.4 , o.+.$.@.#.{ @.9.$.t.Y.F.4.P.P.&.O.7.&.K Q ^ +.4.8.7.4.[ ..+.4.4.#.4.@.#.@.@.",
"@.#.@.#.O.+.4.@.&.&.7.@.@.@.@.3.' #.@.T - z !.S., > O.#.@.@.4.$.f.p.@.@.k.u.4.g.h.@.@.#.O.^ { O.#.4.w.8.@.4.@.#.#.@.#.4.@.@.@.#.",
"@.#.@.#.+.@.4.@.@.#.@.@.@.^ / G ] @.@.O.E f r 4 . - G +.@.#.4.5.Y.P.4.#.{ @.[ Q @.@.@.4.9.@.@.@.#.@.@.@.O.+.@.@.@.[ @.{ @.{ Q @.",
"@.#.4.@.#.$.#.4.@.@.@.$.@.O.D ^ { @.@.@.4.j # . . ; ~ +.#.4.9.9.u.r.@.@.' K G [ @.@.#.4.a.@.#.@.@.+.' { K &.@.@.@.@.@.] W G ] +.",
"@.@.#.@.#.#.4.4.@.@.@.@.@.O.{ @.+.#.4.4.8.@.6.&.L | { @.@.@.4.7.4.p.4.@.[ K &.O.@.@.@.4.@.@.@.@.$.+.G Q ! +.4.9.4.7.@.O.K { O.@.",
"O.O.#.#.#.4.4.#.$.@.$.+.@.@.@.@.@.#.4.8.9.4.4.4.+.#.4.@.#.@.@.@.k.T.M.@.@.+.@.@.@.@.@.@.[ @.@.@.@.+./ { &.@.7.w.@.#.p.m.O.@.@.@.",
"@.@.@.@.4.@.#.@.d.4.] +.Q / 4.@.@.w.#.@.4.@.@.@.#.#.@.#.@.@.@.@.4.N.*.@.#.@.@.#.@.#.@.#.@.@.4.@.@.@.@.@.4.z.@.@.@.O.D.Y.u.#.#.@.",
"@.@.@.@.@.3.+.4.#.@.! Q D 4.4.#.@.9.#.@.4.#.@.@.@.5.@.@.O.#.' ] @.+.O.+.@.#.@.@.4.@.#.@.@.@.@.@.@.o.@.@.n.T.z.4.@.O.4.u.#.#.@.#.",
"@.@.@./ 3.Q ] @.#.4.| ^ &.9.8.4.@.c.5.@.#.#.4.a.4.4.@.4.K / D +.@.@.#.@.#.@.#.#.+.' #.@.@.@.@.@.@.@.@.@.6.n.4.#.@.@.#.@.@.#.@.#.",
"@.@.@.^ L G 4.@.f.H.6.@.@.@.r.@.z.R.N.@.#.@.4.9.#.#.#.+./ Q ] +.@.@.#.@.@.4.! ] G | @.4.#.@.+.+.@.@.@.@.#.@.{ +.{ Q @.@.@.@.#.@.",
"@.@.+.[ / 3.4.4.n.I.y.7.@.v.Y.s.4.l.6.#.4.@.4.@.' +.4.#.+.4.@.#.4.#.@.@.#.4.{ F ^ { @.@.^ 3.K [ @.@.4.5.4.4.} Q G { y.v.+.O.$.@.",
"#.@.@.@.@.7.4.4.3.0.v.F.5.u.B.q.+.{ @.@.@.| Q ^ Q 4.5.5.4.@.@.#.@.+.@.#.@.@.O.{ 4.@.4.+.! L K 3.@.@.y.P.p.4.&.L [ O.F.Y.r.+.@.@.",
"@.@.#.#.@.#.4.7.V.9.N.J.q.+.Q 3.F { #.s.v.3.F / ] 3.4.#.#.4.d.@.4.o.@.@.#.#.#.#.@.@.#.@.] ] 3.@.@.@.p.Y.z.#.3.4.@.4.6.g.@.@.#.@.",
"#.@.+.+.9.7.#.f.T.N.4.6.@.@.^ Q K +.@.D.U.r.| 4.4.@.4.4.@.#.7.#.4.@.@.#.| +.@.4.@.@.@.O.@.@.@.#.@.@.[ *.4.4.4.O.4.#.@.@.@.#.@.#.",
"#.@.+.@.w.7.4.4.i.4.@.@.@.@. .{ +.@.+.0.u.#.4.#.4.@.4.@.@.#.@.#.#.+.! { K 3.@.4.@.#.@.+.#.4.@.+.Q { G +.#.4.#.O.4.M.z.4.4.@.@.4.",
"9.8.@.@.@.#.#.4.4.4.@.o.@.c.Y.s.#.+.o.7.#.4.4.#.@.@.@.O.#.@.#.@.#.3.K Q ^ 3.#.#.@.#.@.4.#.#.@.+.Q Q ! +.#.@.#.#.q.Y.K.5.#.#.#.#.",
"8.8.@.@.@.O.@./  .#.@.@.@.p.F.r.#.#.@.@.#.@.7.4.4.#.@.+.@.#.@.@.@.+.] O.@.@.#.4.#.@.@.@.@.4.{ @.] { @.@.4.4.4.7.@.r.6.@.#.4.4.4.",
"#.@.@.4.4.W / F +.@.@.#.4.4.3.@.] { #.@.@.#.a.8.4.#.4.@.@.@.@./ @.@.4.@.4.4.@.+.+.#.#. .{ ' ^ @.@.@.#.#.#.7.4.#.@.@.@.4.{ ] #.4.",
"@.+.[ #.@._ Q [ +.@.@.#.@.+.W { D O.@.@.#.#.@.#.4.#.#.#.{ Q / L +.@.@.@.@.@.4.@.@.@.@...F L [ +.7.7.@.4.@.4.#.@.#.7.W [ D O.@.@.",
"#.@.@.@.#.+.3.@.7.@.#.@.@.@.^ Q ! O.@.@.4.#.4.4.#.4.#.#.@.K ^ / +.#.@.@.@.4.@.4.4.@.@.o.! +.+.@.9.9.@.#.#.O.O.@.4.+.] K ^ O.@.#.",
"#.@.#.#.#.4.#.#.@.#.@.@.@.@.{ O.@.@.@.#.4.@.+.#.#.4.@.@.+.[ +.@.#.#.#.@.o.#.@.#.@.4.@.9.7.@.@.@.@.@.@.@.#.@.@.#.4.#.O.{ 4.@.@.@.",
"@.#.@.@.#.4.4.4.#.@.@.o.@.@.@.@.#.@.#.#.#.+.O.#.#.4.@.#.@.@.@.@.@.#.4.4.4.@.#.@.@.@.@.9.7.@.#.@.@.#.@.#.@.@.@.#.4.#.@.@.@.@.#.@."
};
