/* XPM */
static char *result[] = {
/* columns rows colors chars-per-pixel */
"64 64 206 2 ",
"   c #010201",
".  c #060A03",
"X  c #090C04",
"o  c #060708",
"O  c #060A0A",
"+  c #0A0C0D",
"@  c #0C1105",
"#  c #090F11",
"$  c #0E1112",
"%  c #0F181B",
"&  c #101617",
"*  c #161A1B",
"=  c #141D1E",
"-  c #1F2C0D",
";  c #243310",
":  c #263B14",
">  c #141F25",
",  c #142224",
"<  c #1E2426",
"1  c #1B2B2D",
"2  c #1E2F37",
"3  c #1E3537",
"4  c #1F3039",
"5  c #23292B",
"6  c #252E32",
"7  c #28383C",
"8  c #2C4517",
"9  c #314516",
"0  c #354819",
"q  c #3C551A",
"w  c #325623",
"e  c #3C6424",
"r  c #466721",
"t  c #4C6D23",
"y  c #507224",
"u  c #53722B",
"i  c #56772A",
"p  c #60753D",
"a  c #2D3E41",
"s  c #333C41",
"d  c #28464A",
"f  c #29484D",
"g  c #374046",
"h  c #324649",
"j  c #3B454A",
"k  c #354A4E",
"l  c #2D4C50",
"z  c #374D50",
"x  c #384B54",
"c  c #3C5457",
"v  c #35565B",
"b  c #375A66",
"n  c #386369",
"m  c #3D6B72",
"M  c #484E53",
"N  c #48555B",
"B  c #5C6345",
"V  c #505D64",
"C  c #486569",
"Z  c #446A79",
"A  c #596870",
"S  c #497075",
"D  c #42747B",
"F  c #517276",
"G  c #56777D",
"H  c #66777F",
"J  c #45923C",
"K  c #4C973D",
"L  c #4D993C",
"P  c #539C3D",
"I  c #648D2D",
"U  c #6D9B31",
"Y  c #5BA33D",
"T  c #63A63D",
"R  c #6FA438",
"E  c #64A93D",
"W  c #6AAC3E",
"Q  c #73A435",
"!  c #79AC36",
"~  c #73AC3A",
"^  c #7AAD38",
"/  c #6EB13E",
"(  c #74B33E",
")  c #7EB33A",
"_  c #7DBA3E",
"`  c #72824B",
"'  c #7BB841",
"]  c #77A955",
"[  c #5F847E",
"{  c #799A73",
"}  c #82B43B",
"|  c #83BD3E",
" . c #88BF3D",
".. c #86C13E",
"X. c #8CC63F",
"o. c #8EC83F",
"O. c #85BE40",
"+. c #8ABC4B",
"@. c #8CB465",
"#. c #87C240",
"$. c #8DC640",
"%. c #8EC840",
"&. c #8EC449",
"*. c #91C742",
"=. c #92C943",
"-. c #98CB47",
";. c #92C64C",
":. c #94CA4B",
">. c #9ACB4A",
",. c #92C652",
"<. c #96CA56",
"1. c #98CC54",
"2. c #9DCE5B",
"3. c #A1CE4D",
"4. c #A3CE50",
"5. c #A2D15D",
"6. c #99C764",
"7. c #9DCA62",
"8. c #A4CD6C",
"9. c #A6D266",
"0. c #ABD46B",
"q. c #AACF74",
"w. c #AED573",
"e. c #B4D778",
"r. c #477C84",
"t. c #597C81",
"y. c #687984",
"u. c #4E8991",
"i. c #538A98",
"p. c #53929B",
"a. c #65858B",
"s. c #6F8189",
"d. c #668E94",
"f. c #748894",
"g. c #6B959B",
"h. c #7E929E",
"j. c #5C8DAA",
"k. c #5A9BA4",
"l. c #618FAA",
"z. c #669BA3",
"x. c #719EA4",
"c. c #5DA2AC",
"v. c #5EA6B0",
"b. c #75A4AB",
"n. c #77A5AD",
"m. c #60A7B1",
"M. c #69ABB5",
"N. c #6EADB6",
"B. c #7AACB3",
"V. c #70AFB8",
"C. c #74B2BB",
"Z. c #7BB3BB",
"A. c #75ACCB",
"S. c #73B0D1",
"D. c #7FC3EB",
"F. c #90B68A",
"G. c #869CA7",
"H. c #879DA8",
"J. c #8AA2AD",
"K. c #8BA8B5",
"L. c #99A8B2",
"P. c #88BFB5",
"I. c #83B6BE",
"U. c #ADB4BE",
"Y. c #A9D48B",
"T. c #AAD6A0",
"R. c #C6DE84",
"E. c #C7E284",
"W. c #D0E489",
"Q. c #DBE88C",
"!. c #E5ED8B",
"~. c #E9F08C",
"^. c #87BCC4",
"/. c #89BEC6",
"(. c #93BACB",
"). c #A3BFCC",
"_. c #B8BDC2",
"`. c #8EC0C7",
"'. c #9BC7CE",
"]. c #BBC0C6",
"[. c #A6CAD4",
"{. c #ACCAD7",
"}. c #B3C9D7",
"|. c #ADD1D6",
" X c #83C7EA",
".X c #85C8F0",
"XX c #84C9F3",
"oX c #9FD4F4",
"OX c #B4D3E3",
"+X c #B8D7E8",
"@X c #BEDDEE",
"#X c #A8D8F5",
"$X c #B7DDF3",
"%X c #BCE2F8",
"&X c #C0CCDD",
"*X c #DEECEF",
"=X c #C2E3F6",
"-X c #C4E5F9",
";X c #C7E8FA",
":X c #C9E9FA",
">X c #D1E7F0",
",X c #E2EFF1",
"<X c #E6F3FA",
"1X c #F1F7F8",
"2X c #F7FBFE",
"3X c #FAFDFE",
/* pixels */
"X.o.X.X.X.%.o.%.X.o.X.o.X.X.X.) X.X.X.o.o.X.%.X.o.%.X.X.X.X.X.X.o.X.X.X.X.X.o.X.X.X.X.X.X.X.X.X.o.o.X.o.|  .X.$.%.%.o.%.X.>.*.o.",
"X.X.X.o.o.%.$.| X.X.o.X.X.o.X.X.o.X.X.X.%.X.%.4.$.%.X.o.*.*.X.o.o.X.| ..X.o.o.X.X.......Y X.X.X.X.X.X.X.X.$.X.X.%.%.o.%.X.=.*.X.",
"3.o.o.o.( | W E o.o.o.$.>.X.X.X.X.) i q 0 9 9 9 9 9 9 9 0 0 9 U X.q 9 9 9 9 9 9 9 : : : 8 r U X.X.$.X.o.o.X.o.X.$.X.X.%.o.X.o.o.",
"-.X.X.X.( K P _ ..o.$.o.-.X.X.! q .     $ & & & & & & & & & & [ P.< & & & & & & % % % $ O     - I 4.$.X.X.o.X.X.X.| X.Y _ X.X.X.",
"X.o.o.$.| T ....X.%.X.o.X.X.i @   = F x.B.Z.Z.Z.Z.Z.Z.Z.B.Z.Z.I.I.Z.Z.Z.Z.Z.Z.B.Z.B.Z.B.n.a.s     9 ..X.o.o.o.o.#.L ' P ..$.%.%.",
"o.X.=.*.$.$.%.X.%.%.%.X. .t   $ F Z.V.k.r.D D D D D D D D D D D D D D D D D D D D D D r.p.M.Z.z.6   ; } X.o.o.X.#.Y E ) X.X.o.%.",
"X.X.>.=.X.$.X.o.o.X.o.o.y . & b.V.u.7 +                                                   = m m.Z.k   : X.X.X.o.$. .X.X.$.o.X.o.",
"X.o.X.o.$.$.%.>.o.$.o.) @ + g.M.b o   6 A y.f.y.s.s.s.s.s.s.s.s.s.s.s.s.s.s.s.s.s.s.s.y.x +   1 k.Z.7   t X.X.X.$.$.o.*.X.X.X.X.",
"o.X.o.X.%...%.>.X.%.$.9   G C.n   % l.=X=X=X=X=X=X=X=X=X=X=X=X=X=X=X=X=X=X=X=X=X=X=X%X=X;XOXj   , c.B.$ X } %.$.o.%.%.%.4.o.o.) ",
"X.X.( ..( Y %.$.%.X.) @ , Z.u.  % A.#X-X-X-X-X-X-X-X-X-X-X-X=X-X-X-X-X-X-X-X=X=X=X=X=X-X-X$X=XV   l C.C   y X.$.X.$.X.o.*.o.$.$.",
"X.X.' K P ( ..o.X.o.r   C M.7 o j..X=X-X-X-X-X-X-X-X-X-X-X@XOX=X-XOXOX-X:X3X2X2X2X2X:X:X2X<X-X+X, + k.b.  : *.=.o.%.O.X./ / o.X.",
"X.X.#.Y | O.o.X.%...q   d.c.# , D.oX-X-X-X-X-X-X-X-X-X-X=Xh.& H.:X5 6 -X:X3X2X2X3X3X-X:X2X<X=X=XH   m Z., X $.>.X.o.Y E J | $.o.",
"X.X.X.X.X.o.o.o.X.X.:   C v   v XX#X-X-X-X-X-X-X-X-X-X-X-XJ.s K.-XM N -X-X=X-X-X=X-X-X-X-X-X=X-X).  1 S 5   ! 1.o...( Y (  .X.X.",
"%.%.X.X.o.*.X.-.-.o.;         b .X#X-X-X-X-X-X-X-X-X-X-X-X-X-X-X-X-X-X-X-X-X-X-X-X-X-X-X-X-X-X-XOX          @.!.2.o.....X.X.X.o.",
">.=.X.X.X.o.X.=.*.X.I i o > i.A.#X=X=X-X-X-X-X-X-X-X-X-X-X-X-X-X-X-X-X-X-X-X-X-X-X-X-X-X-X-X-X-X@Xh.A   : i +.e.=.o.X.X.X.X.X.( ",
"$.X.X.X.X.*.o.o.X.o.$.#.o 6 .XoX-X=X-X@X@X=X@X@X@X@X@X=X@X@X@X=X=X@X@X@X@X@X@X@X@X@X@X@X@X=X-X-X=X=XG.  y $.$.X.X.o.X.X._ W ( L ",
"%.o.X.( ..o.X.X.%.X.*...X 6 XXoX-X-X-X6 5 5 < < 1 < < < < < , J.=X7 < 5 < 5 < < < 5 < < < G.-X-X-X-XH.  y X.X.o.%.o.o.o.X.L Y W ",
"( / E T X.X.X.| X.E _ X.. 4 XXoX-X-X-X$   % * = , 1 , = = = = a.^.6 = = = = = = = = = $   f.=X-X-X=XH.  y X.X.X.%.X...X...~ O...",
"..J T ( $.0.X.P W J ....@ 4 XXoX-X-X-X$ > z.M.^.`.Z.Z.Z.P.^.I.^.^.I.I.I.I.I.Z.^.I.^.I.G   f.-X-X-X=XH.  y o.>.*.$.X.) X.X.X.$.$.",
" .( ....w.~.8.W T ( $.$.w Z XXoX-X-X-X$ , m.M.^.Z.`.`.`.^.^.^.^.^.^.^.^.^.^.^.^.{.{.^.t.  f.-X-X-X-XH.  y o.-.$.o.o.%.%.X.X.o.X.",
"X.o.X.X.&.8.#.O.#.%.%.=.Y. XXXoX=X-X-X$ , v.V./.`.`.Z.Z.`.`.Z.`.^.^.^.^.^.^.^.^.1X1XP.t.  f.=X-X-X-XH.  y o.o.o.o.%.X.$.%.%.$.o.",
"X.X.o.o.$.2.$.$.$.....0.B r.XXoX-X-X-X$ , v.V.^.Z.`.`.`.Z.Z.`.`.^.^.^.^.^.^.^.^.|.|.^.t.  f.=X-X-X=XH.  y X.%.o.o.%.X.%.X.3.=.X.",
") $.%.X.w.~.9.$.o. .#. .o 2 XXoX-X=X=X$ , c.N.^.`.Z.`.P.`.`.`.Z.^.^.^.^.^.^.^.^.^.^.^.t.  f.-X-X-X=XH.  y X.X.o.X.X.X.X.X.X.X.o.",
"$.0.W.:.,.e.&.1.1.$.%.X.o 6 XXoX-XV 1   o > v m.Z.`.Z.D.`.Z.`.Z.^.^./.^.^.^.^.^.*X*X^.t.  f.-X-X-X-XH.  y X.$.( #.P _ X.o.X.o.X.",
"$.0.R.&.$.| =.W.W.=.%.$.X 4 XXoX:Xs   < *   f m.Z.^.^.^.^.Z.`.`.^.^.^.^./.^.^.^.,X,X^.t.  f.=X-X-X=XH.  y *...Y E L #.$.$.%.%.%.",
"$.X.' ..( P $.7.7.$.X.>.X 4 XXoX:Xs   }.U.  d m.Z.^.^.^.^.^.`.Z.^./.^.^.^.^.^.^././.^.G   f.-X:X-X=XH.  y o...W W O.X.%.$.$.o.%.",
"%.$.' J P ' ..X.X.:.R.1.@ 4 XXoX:Xj   &X].  d v.Z.^.^.^.^.^.^.^.^.^.^.^.^.^.^.^.^.^.^.t.  f.=X-X-X=XH.  i X.o.$.$.%.X.X.o.o.$.%.",
"$.$.O.Y | #.%.o.X.7.Q.8.. 4 XXoX:Xs   &X].  d v.Z.^.^.^.^.^.^.^.^.^./.^.^.^.^.^.^.^.^.t.  f.=X-X:X=XH.  y X.*.$.%.o.X.$._ ( o.X.",
"%.X.X.X.X.o.%.o.X.X.&.#.X 6 XXoX:Xs   &X_.  d v.Z.^.^.^.^.^.^.`.^.^.^.^.^./.^.^.^.^.^.t.  f.-X-X-X-XH.  u o.o.X.%.o.Y ( J _ X.o.",
"o.X.*.o.X.o.*.%.X.X.| W O 4 XXoX:Xg   &X_.  d v.Z.^.^.^.`.^.^.^.^.^.^.^.^.^.^.^.^.^.^.G   f.=X-X-X=XH.  ` :.} X.*...( L E | X.o.",
"X.X.>.=.X.o.3.*.X.o...P . 4 XXoX:Xs   5 5   d v.Z.^.^.^.^.^.^.^.^.^.^.^.^.^.^.^.^.^.^.t.  f.-X-X-X=XH.  p *...X.o.X.O.+.X.X.X.X.",
"X.X.X.X.X.%.X.%.X.X.X.W . 4 XXoX:XN =   o $ x m.A.`.^.^.^.^.^.^.^./.^.^.^.^.^.^.^.^.^.t.  f.-X-X-X=XH.  y o.o.9.9.X.*.-.X.X.X.X.",
"X.o.o.o.X.X.o.$.X.X.X.X.X 4 XXoX-X@X@X@ , v.V.Z.`.Z.D.`.`.Z.Z.`.^.^.^.^.B.g.g.g.g.g.^.t.  f.-X-X-X=XH.  y X.%.W.W.%.X.X.X.X.o.X.",
"X.X.X._ o./ ( $.o.X.$...X 4 XXoX-X-X-X$ , m.V.`.`.`.P.Z.`.`.`.Z.^.^.^.^.G         $ ^.t.  f.=X-X-X-XH.  t ..$.,.,.%.X.%.%.X.X.o.",
"o.X.$.Y W J #.$.X.X.$.X.X 4 XXoX-X-X;X& , v.V.Z.Z.`.`.`.Z.`.`.`.^.^.^.^.g.N ,   x C ^.t.  f.=X-X-X=XH.  w ..X.X.$.%.$.$.o.X.o.X.",
"X.X.#.) P (  .o.o.*._ #.X 4 XXoX-X-X%X$ , v.V.`.`.Z.Z.`.`.Z.Z.^./.^.^.^.`./.h   b.^.^.t.  f.=X-X-X-XH.  e ..X.o.%.%.%.....o.X.$.",
"X.o.X. ...$.X.X.o.%.X.X.X 6 XXoX-X-X-X$ , m.V.Z.`.`.Z.`.^.^.^.^.^.^.^.^.^.^.f   n.^.^.t.  f.-X-X-X-XH.  t $.%.o.#.W | P ..%.o.o.",
"%.%.X.%.$.%.X.o.X.o.X.X.X 4 XXoX-X-X-X$ , m.V.`.Z.`.`.Z.^.^.^.^.^.^.^.^.^.`.h   n.^.^.t.  f.-X-X-X=XH.  y X.%.%.$.P Y Y ..%.%.%.",
"o.$.%.%.%.$.o.X.X.X.X.X.X 4 XXoX-X-X-X$ , m.C.Z.D.`.`.Z.^.^.^.^.^.^.^.^.^./.h   b.^.^.t.  f.=X-X-X=XH.  y o.%.%.#.W ' X.$.$.X.%.",
"| X.o.X.%.>.o.o.*.o.X...X 4 XXoX-X-X-X$ , m.V.`.P.Z.`.`.`.^.^.^.^.^.^.^.d.h &   a x ^.t.  f.-X-X-X-XH.  y X.o._ O.$.%.%... .o.X.",
"} o.$.o.%.>.X.o.#.#.( W X 4 XXoX-X;X=X& = m.V.^.^.^.`.^.^.^.^.^./.^.^.^.G o o     & ^.t.  f.=X-X-X=XH.  t T #.L _ $.o.o... .X.X.",
"o.o.X.o.X.X.o.X.Y ' J ' X 4 XXoX-X-X=X& , m.N.^.^.^.^.^.^.^.^.^.^.^.^.^.Z.b.b.b.b.n.^.t.  f.=X-X-X=XH.  t E P Y ..$.X.$.o.o.X.o.",
"o.o.X.X.%.o.%.$.) P ( } X 4 XXoX-X{.'.+ % i.z.^.^.^.^.^.^.^.`.^.^.^.^.^.^.^.^.^.^.^.^.t.  f.-X-X-X-XH.  y ' ' ..$.X.X.%.X.o.%.X.",
"X.X.o.o.| ..$.X.#.#.*.X.X 4 XXoX:Xj o       f c.Z.A.`.^.^.^.^.^.^.^.^.^.^.^.^./.^.^.^.t.  f.=X-X-X=XH.  t $.%.X.X.X.$.%.X.X.X.X.",
"$.X.o.X...$.X.X.X.o.$...O 4 XXoX=XM   N M   d v.Z.`.^.^.^.^.^.^.^.^.^.^.^.^.^.^.^.^.^.t.  f.-X-X-X=XH.  t ..X.X.$.) X._ #._ Y X.",
"X.o.X.X.X.%.$.%.X.o.o.X.o 2 XXoX>Xs   &X].  d v.Z.^.^.^.^./.^.^.^.^.^.^.^.^.^.^.^.^.^.t.  f.=X-X-X-XJ.  w O.X.X.$.X.o./ Y L ( ..",
"X.X.X.o.o.%.%.%.X.X.X.X.X 2 XXoX;Xs   &X].  d v.Z.^.^.n.h h d h h h h h F ^./.^.^.^.^.t.  f.=X-X=X=XG.  w $.$.-.$.%.X.| P _ | X.",
"|  .X.o.X.%.$.X.X.X.X.X.X 4 XX#X;Xj   }.].  d v.Z.I.^.b.o o O   o o o o k /.^.^.^.^.^.t.  f.=X-X-X=XOX{ ! $.$.>.%.X.2.w. .X.o.X.",
"X.X.X.X.X.X.o.$.4.%./ ... 4 XXoX:Xj   }._.  d c.Z.^.^.^.b.x.b.b.b.b.b.x.B.^.^.^.^.^.^.G   f.-X-X-X-X=XT.$.9.X.X.X.} R.Q.,.o.X.X.",
"X.X.X.X.$.$...$.o.X.E Y o 2 XXoX:Xg   U.L.  d m.Z.^.^.Z.b.x.x.b.x.x.b.b.B.^.^.^.^.^.^.t.  f.-X-X-X=XJ.+ ` !.9.X.X...&.<.X.X.X.o.",
"X.X.X.W ..Y ( $.o.#.) T X 4 XXoX;Xs   o +   d c.Z.^.^.b.o o o O o O o o k /./.^.^.^.^.t.  f.-X-X-X=XH.  u q.$.*.X.o.o.X.X.o.o.X.",
"X.X.X.T P P #.$.5.E.&.$.X 4 XXoX;Xy.N o + a Z M.Z.^.^.n.h h h h h d h h F /.^.^.^.^.^.t.  f.-X-X-X=XH.  y ..O...( Y o.o.X.X.o.X.",
"X.X...) W #.$.$.w.Q.<.$.X 4 XXoX-X-X-X$ , v.N.I.^.^.^.^.^.^.`.^.^.^.^.^.^.^.^.^.^.^.^.t.  f.-X-X;X=XH.  y X.W Y L _ 1.0...| o.X.",
"X.X.X.X.$.$.$.%.#.,.9.R.X 4 XX$X1X:X-X$ , v.`.>X'.^.^.n.z k k k x z z z G /.^.^.^.^.^.t.  f.-X-X-X=XH.  u $.O.P _ _ R.Q.,.X.X.o.",
"X.X.X.X.$.%.%.%.e.:.e.W.X 4 XX%X3X:X;X& , v.[.3X|.^.^.b.        o   o   k /.^.^.^.^.^.t.o f.-X-X-X=XJ.  i $.O.$.X.$.&.6.X.X.X.o.",
"X.o...X.-.%.o.2.!.e.#.&.] S.D.#X>X;X=X(.p.v.C.'.`.^.^.Z.b.x.b.x.x.x.x.x.n.^.^.^.^.^.^.Z.K.+X-X-X-X-X+XF.O.$.*. .%.X.X.X.X.X.o.X.",
"X.X.....>.%.%.$.<.&.! ! ] A.S.(.{.{.{.[.p.p.z.n.n.n.n.n.n.n.b.I.^.n.n.n.b.n.b.n.n.n.n.n.(.{.{.{.{.{.{.F.! ! X.} %.w.9.%.%.%.X.o.",
"-.-.X.o.o.$.$.%.X.$.: . X + # # + + + + o o O O O O O + O O o [ P.* O O O + O + O O O O X + + + $ + + X . X Q X.:.Q.R.%.%.$.X.X.",
"=.=.X.$.X.| #.E ( o.;   3 4 a a a a a a a a a a a a a a a a 7 g./.x a a a a a a a a a a s a a a a a a h *   Q X.o.,.;.X.o.%.%.%.",
"o.X.X.%.#.Y ' J #.X.;   c.M.^.^.^.^.^.^.^.^.^.^.^./.^.^.^.^.^.^.^.^.^.^.^.^.^.^.^.^.^.^.^.^.^.^.^.^.^./.z   Q X.X.X.$.$._ ( o.%.",
"X..._ o.X.~ Y ) ..X.;   d l c c c c c c c c c c c c c c c c c c c c c c c c c c c c c c c c c B.I.c c c ,   Q X.X.o.Y ( J ' X.o.",
"X.X.o.o.X...#.$.X.X.;                                                                         ] @.          U X.%...( P T  .X.X.",
"X.o.o.X.X.$.o.X.o.X.} ) ) } R ~ ) } ) } } ! ! ) ) } ) } ! Q ! ) ) } ) ! Q } ) } } } } } } ^ } ..X.) ) ) } ) ..o.%.X.| _ $.X.X.X.",
"X.X.o.X.o.%.$.%.X.o.o.}  .X.o.X.X.X.X.o.o... .X.X.X.X.X.X.X.X.X.X.X.X.o.o.X.X.X.X.o.X.-.=.o.X.X.X.X.X.X.o.X.X.X.%.$.X.X.X.o.X.o."
};
