/* XPM */
static char *result[] = {
/* columns rows colors chars-per-pixel */
"64 64 243 2 ",
"   c #2A7818",
".  c #055B2A",
"X  c #0A5929",
"o  c #12512E",
"O  c #055C31",
"+  c #0B5939",
"@  c #125938",
"#  c #0A4F30",
"$  c #205A31",
"%  c #06642A",
"&  c #1D762C",
"*  c #04653A",
"=  c #197A34",
"-  c #106136",
";  c #286C29",
":  c #297529",
">  c #357D29",
",  c #2C6E3B",
"<  c #226B36",
"1  c #267536",
"2  c #317439",
"3  c #34692F",
"4  c #1A5215",
"5  c #095C46",
"6  c #175547",
"7  c #026441",
"8  c #1C7844",
"9  c #1A6F4E",
"0  c #276C46",
"q  c #356B43",
"w  c #2A7447",
"e  c #3B7B42",
"r  c #3C7956",
"t  c #457F43",
"y  c #38851D",
"u  c #19802F",
"i  c #37873A",
"p  c #31872D",
"a  c #558A19",
"s  c #548A0E",
"d  c #619A1E",
"f  c #6AA31E",
"g  c #43862B",
"h  c #48823D",
"j  c #56912C",
"k  c #659A27",
"l  c #659033",
"z  c #58AF3D",
"x  c #79AE2C",
"c  c #66B42C",
"v  c #7AB42A",
"b  c #77B929",
"n  c #61A53A",
"m  c #76AC38",
"M  c #6CB53C",
"N  c #6CBA3C",
"B  c #66B639",
"V  c #7CB334",
"C  c #73BC35",
"Z  c #7CBA35",
"A  c #75B43D",
"S  c #7CB43A",
"D  c #74BB3D",
"F  c #7CBB3B",
"G  c #71B736",
"H  c #7BC72C",
"J  c #7EC434",
"K  c #7CC23C",
"L  c #7DCB3A",
"P  c #7BCB33",
"I  c #73C72F",
"U  c #3A8244",
"Y  c #4F8745",
"T  c #6A9742",
"R  c #5BA747",
"E  c #5CB05B",
"W  c #68AB47",
"Q  c #78AE45",
"!  c #6CB642",
"~  c #68B648",
"^  c #72B343",
"/  c #7BB343",
"(  c #74BA43",
")  c #7CBB41",
"_  c #7DB34B",
"`  c #73BB4A",
"'  c #77B84A",
"]  c #6DB953",
"[  c #6BB256",
"{  c #72B663",
"}  c #7CCB42",
"|  c #78C447",
" . c #7DD345",
".. c #74C056",
"X. c #76C850",
"o. c #8BBB2D",
"O. c #85B82B",
"+. c #88AE39",
"@. c #85BC35",
"#. c #8BBC34",
"$. c #83B43D",
"%. c #84BC3B",
"&. c #8BBE3B",
"*. c #86B337",
"=. c #91BD35",
"-. c #92BC3D",
";. c #97BC36",
":. c #88B42F",
">. c #88D51E",
",. c #84C42D",
"<. c #8BC42D",
"1. c #85CB2C",
"2. c #8ACA2D",
"3. c #88CC25",
"4. c #92C42D",
"5. c #93CC2E",
"6. c #89D124",
"7. c #85C434",
"8. c #8BC535",
"9. c #85CA35",
"0. c #8CCB34",
"q. c #85C43B",
"w. c #8CC53C",
"e. c #84CB3B",
"r. c #8CCA3C",
"t. c #93C534",
"y. c #99C435",
"u. c #92CA34",
"i. c #92C43C",
"p. c #9AC43D",
"a. c #92CB3C",
"s. c #9ACA3D",
"d. c #9ACC34",
"f. c #83D236",
"g. c #8AD235",
"h. c #85D33B",
"j. c #8CD13B",
"k. c #8CDA3E",
"l. c #92D13D",
"z. c #97D237",
"x. c #91D027",
"c. c #F6F701",
"v. c #F4E206",
"b. c #F7F73A",
"n. c #FAFA2B",
"m. c #85AC46",
"M. c #84B444",
"N. c #85BD43",
"B. c #8BBD43",
"V. c #8CBE4A",
"C. c #87B84B",
"Z. c #93BD43",
"A. c #98BB49",
"S. c #88BA55",
"D. c #97BB57",
"F. c #8EBF69",
"G. c #98BC68",
"H. c #97BB77",
"J. c #A4BE73",
"K. c #85C443",
"L. c #8CC543",
"P. c #85CA43",
"I. c #8DCA43",
"U. c #85C449",
"Y. c #8CC44B",
"T. c #85CC4A",
"R. c #8CCA4B",
"E. c #92C444",
"W. c #99C444",
"Q. c #92CB43",
"!. c #9BCA44",
"~. c #93C44B",
"^. c #9BC34C",
"/. c #93CA4B",
"(. c #9ACB4C",
"). c #8BD143",
"_. c #87D445",
"`. c #92D143",
"'. c #94D349",
"]. c #99D14B",
"[. c #97D446",
"{. c #84C251",
"}. c #8BC453",
"|. c #8BCC52",
" X c #8CCB5A",
".X c #87C15B",
"XX c #93C453",
"oX c #9BC553",
"OX c #93CB52",
"+X c #9BCA5C",
"@X c #99C858",
"#X c #8CD152",
"$X c #9BD35A",
"%X c #9BD654",
"&X c #A1C648",
"*X c #A8CB5A",
"=X c #A5D45A",
"-X c #B5D85D",
";X c #A0D748",
":X c #ADE75C",
">X c #8EC363",
",X c #98CD68",
"<X c #9AD565",
"1X c #8BD461",
"2X c #AACD65",
"3X c #A8D566",
"4X c #B5D766",
"5X c #B6D975",
"6X c #ABCF72",
"7X c #B6E46B",
"8X c #EAFE4C",
"9X c #F3F441",
"0X c #F5FD59",
"qX c #CEEC71",
"wX c #F5EA6A",
"eX c #B8CB85",
"rX c #C4DA9A",
"tX c #D7E785",
"yX c #C5E6A9",
"uX c #D7E8AE",
"iX c #D9F5B6",
"pX c #CFEAB2",
"aX c #EAECB5",
"sX c #E5F3B5",
"dX c #E9F8B9",
"fX c #F8FDBE",
"gX c #E0F4AF",
"hX c #D7DCC8",
"jX c #D9F6CA",
"kX c #D5EFD6",
"lX c #EAECC7",
"zX c #E6F9C9",
"xX c #F7FBCB",
"cX c #EAEBD9",
"vX c #F4ECD9",
"bX c #E5F5D7",
"nX c #F7F8D2",
"mX c #D6ECE0",
"MX c #F7FDEB",
"NX c #F4FFFE",
"BX c #FCFCFB",
"VX c #F9FFF4",
"CX c #EEF7F2",
/* pixels */
"w.a.E.w.L.w.w.W.K.i.W.K.9.q.9.E.i.K.r.e.u.9.!.9.L.R.i.B.).} q OX6 e.Y.L.r.L.r.w.E.I.L.i.Q.K.K.t.p.OXw.L I.B.g.+ w.K.L.a.I.w.L.w.",
"Y.~.Q.I.r.`.L.R.a.0.Y.).R.w./.I.r.R.W.w.a.}.q.i.R.5X4XL.w.H g R.A F (.w.w.I.~.8.w.L.w.L.Q.a.a.L.0.Y.r.E.2 D ; #XK.r.L.a.L.r.r.Q.",
"0.Q.L.I.q.Q.9.2.U.e.Q.W.-.sXsX~.9.i.L.E.s.w./.P.I.6X3Xw.I.r.U.I.j.K.i.a.8.r.Q.r.w.q.w.Q.&.=X2XL.q.r.~.M./.1 W v w.w.r.L.r.Q.E.r.",
"w.E.w.Q.E.i.E.W.u.I.K.7.a.G.oXI.a.I.q.}.0.-.R.e.H V.Y.t.L.9.Q.%.Y.r.a./.8./.7.I.Q.9.I.K.E.dXzXw.Q.q.R.a.v S U./.w.E.L.r.L.w.E.w.",
"8./.w.r.Y.8.e.9.X 9.E.a.<.*.V.r.r.U.E. .;X= y.9.q.Q.L.u./.K.w.Q.i.K.q.Y.r.R.R.K.B.a.q.K.-.J.H.0.K.8.9.7.R.^.i.9.L.r.I.L.i.I.w.w.",
"L.w.a./.6.r L @ 0.4X^.3.Q.R.0.p.Y.F W 2.+ w.T.i.Q.r.%.8.I.Q.q.u.0.K.F R.Q.8.2.I.Q.w.I.`.=.-.Z.a.I.E.!.P.E.i.A.9.r.L.a.r.Q.Q.Q.E.",
"I.OXw.7.K ! I z ` }.8.}.}.L.8.r.a.*.w x.[ C.,.L.Q.L.L.Q.K.0.Q.r.E.r.Y.L.w.a.a.a.q.L.w.w.L.r.9.w.I.E.K.^.9.E./.Q.i.I.L.i.L.Q.Q.Q.",
"0.K.w.a.E.N.<.U.y.K.a.L.2.i.zXK.K.w.C.9.%.8.r.E.0.~.K.w.~.0.L.Y.E.E.0.9.i.Z.jXw.Q.e.r.W.L.D ^ /.E.9.a.w.(.9.9.w.w.Q.Q.w.w.Q.E.L.",
"w.Q.7.L.|.0.L.a.r.E.e.I.r.*X9XVXW.i.w.y.L.I.jXM.i.K.I.w.0.~.A.e.w.r.q.L.i.<Xn.NXr.w.: Q.T.1 3.U.r.*.| E.0.L.Y.0.P.I.8.L.8.cXu.I.",
"w.+XQ.~.0.R.2.I.I.i.Q.2.q.d.yXO.P P.L Y.a.+X8XjX9.^.t.0.V.-X8.I.r.e.oXL.r.y.hXx r.V.~.% 7.i U.E.L.w.q.E.K.r.Q.q.t.7.K.u.mX0X(.P.",
"8.8.Q.8.8.i.R.L.7.Q.~.= Y.L.#.P.i.^.Q.i.r.R.G.0.w.^.K.9.a.).p.K.w.g.L.a.9.i.K.r.P.}.&.R R.L.i.7.w.I.E.t.i.r.~.8.w.Y.i.8.Q.G.a.a.",
"OXI.E.OXu.Y.Y.I.. 7.2 Q.R.E.|.9.Z.0.Q.8.N.q.L.L.OX9.P.=./.#.e.Q.E.w.L w.w...W a.8.w.I.Z.e.8.XXw.I.w.w.I.a.7.Y.a.I./.&.w.e.I.L.Z.",
"K.r.0.e.i.Q.&.0. X< = i.V q.Y.y.0.K K.R.u.u.i.~.L w.'.- L.w./.t.Q.w.w `.s.u q.Q.a.E.j.r.a.0.}.qXJ ^.0.R.w.I.T.o.u.w.Y.u.L.I.u./.",
"u.h.P.H _ R.t.Z Q.p =.S.p.h.e.L.E.(.(.r./.K.g.Q.w ' 1 I.E.2.U.0.7.oXK O Q.U N.L.L.w.~.a.L.r.a.p.e.i.L.( J |.p d.K.I.u.K.W.P.0.q.",
"@.Y ).1 _ e.~.w.-.q.0.U.e.W.9.R.8./.i.e.u.~.e.v !.1 M S U.U.I.V.0.t.%.~ Y.1.XX0.7.Q.I.*Xj.w.Q.e.r./.,.V = @.c M.K.I.q.E.d.I @XL.",
"z.! M % r.D E.I.K.OXw.r.E.W.U.u.r.q.E.R.E.p.T.E.V F R.Z.8.r.8.K.r.V.I.7.r.I.l I.J cX} i.R.P.~.w.E.q.J W.* 7.M XXp./.8.w.tXL.^.2.",
"V M ) Q +.i.L.i.Z.R.U.8.I.0.I.w.l L.8.a.w.Q.I.r.r.Q.L.8.r.Q.i.qXq.E.t.U.Q.r.9.K.BXb.3X1.q.I.`.L.L.R.9.v m.Y.r.E.w.I.L.r.L.w.r.w.",
"S.F I.Q.U.9.|.3Xs.K 1./.w.~.r.~.I.w./.Y.Q.r.w.L.i.q.L.L.r.i.L.E.I.r.Q.L.8.U.s.I.*.yXS.s.i.a.7.Q.i.w.r.Q.L.I.r.Q.q.a.7.E.r.i.OXI.",
"r.Q.w.w.j.r.pX9XzXK.i.8.Y./.9.r.Y.9.K.r.L.K.Q./.E.%.%.R.w.I.E.E.r.R.7.E.Q.a.<.~.e.w.9.T.A.E.i Q.p.Q.Y./.8.r.r.8.L.I.a.Q.E.K.Q.8.",
"o.t.+X#.j a.:.BX_ a.E.K.u.=.I.w.I.I.u./.L./.0.8.w.I.L.L.I.r.I.I.~.0.a.L.w.L.w.I.K.R.^.% oX~ c q.I.r.&.~.8.r.K.~.u.Y.Y.7.w.w.r.R.",
"y.0.e.j.r.-.Q.C 8.A.Q.P.Y.U.< '.B.i.8.w.a.i.7.Y.r.Q.Q.q.Q.w.w.q.0.I.q.Q.e.a.~.9.p.E.9.2.. M.` Z P.0.8.|.L.r.E.E.j w.a.L.a.l.I.U.",
"U.L.I.N.a.i.~.w.e.w.8.~ 0.$.M C.E.0.a.Y.7.%X/.Y.a.w.w.Q.r.w.r.Q.XXi.).M ^.8.T.r.w.r.N.}.< B.M.%.P.8.u.i.q.r.Q.8.w.E.K.Q.R.W |.b ",
"K.zXsXy.K.Q.8.E.q.Q.s.] 0 H U.q.9.#XU.3 j.w.7.Q.a.L./.L.Q.I.q.L.: 1.y | =.D.R.y.P.L.Q.K.&.L.8./.Q.2X*Xa.l.w.a.`.8.8.z.r./.c ^ @ ",
"r.*.H.g.q.~.7Xa.E.P.C.9.+ R.o.Q.o H , j.7.Q.Q.w.K.Q.Y.s L.E.Q.%.j.9 2 I.G d.-XU.W.a.9.a.W.} Q.w.Z.xXzXi.0./.L.K.Y./.K.K.V ^ ' ) ",
"r.q.#.Q.L.u.0.L.I.E.4.V S a.Y.Y.z.8 8 P.O.9.i./.L.I.w.Q.w.w.Q.x  X3 Z m OXr.7.~.q.!.w.K.i./.E.Y.q.F.>XK.0.R.C.A.a.i.L.L.Y.b L.L.",
"w.j.^.9.,XsX!.L.L.R.i.w.T.9.I.Z g.Y M.v @Xe.K.=.w.Q.I.w.r.Q.Q.w.C S.9.r.w.a.l.I.~.3.r.Y.d.0.e.8.~.Y.oX8.I.6XrXq.K.:XY.I.r.a.w.w.",
"Q.e.&.e.>XdXZ.K.r.a.e.T.E.4.q.K.%.K.uX8.I.K.I.w.w.r.r.w.I.Q.w.Q.0.R.8.8.Y.0.w.w.!.L.L.Q.7.I.R.r.p.%.o.Y.K 2XeXP.R.q.I.r.8.~.w.E.",
"w.L.a.I.}.+.!.q.r.o.V.OXE.*X6XV.XX=Xb.NXq.a.I.l L.L.Q.w.w.K.w.w.q.I.Q.Q.a w./.Q.8.K.I.a.8.~.L.I.g.F W.I.#XI.A.9.i.~.0.2.a.L.a.q.",
"E.`.w.&.`.).| E.I.q u.K.2.lXnXK w.U.lXm 2.W.L.P.w.I.w.Q.w.K.].w.q.E.L.r.}.I.K.E.}.a.K.a E.(.3X#.P.I.Q.8.K.9.K.2.t.zX-.w./.K.Q.K.",
"!.K p.!.9.! E E.- w.0.e.a.G.J.L.I.q.A.Q.E.i.i.K.r.I.w.Q.w.a.;XI.i.Q.I.q.L.8.Q.8.2.I.Y.Q.&.iXiXoXE.Q.J w.u.i.Q.L.kXqX6XB.T r.q.Q.",
"!.|.t.0.e.' > i.R M.j.).-.^.J i.E.h.Q.P.K.s.E.T.r.I.r.r.w.w.Q.i.q.8.a.w.q.Q.8.w.K.I.r.r.E.~.E.i.t.w.r.R.U.i.i.Y.i.@X&.E.r.8.0.a.",
"E.r.I.q.I.}./ r.E.R.-.VXL.I.Q.w.u.L.d.V.0.L.jXq.w.K.r.L.I.L.w.E.I.E.w.I.r.U.Q./.a.8.w.q.u.,X,X0.K.w.E.1.+ j.-.3.L.w.0./.w.,X3XK.",
"w.w.Q.i.w.r.Q.w.i.9.zXc.BXa.=.a.l L.e.s.8.6X9XMXL.r.q.u. X).I.=.I.9.K.R.t.I./.9.7.` ^ w.,.xXnX;.u.: h.7 p.a.vX,.a.q.~.q.7.fXnX=.",
"Q.I.I.7.Q.L.Q.I.Y.X.$.lX*.I.I./.q.Q.I.7.w.r.yXZ e.Y.I.A , O././.E.~.y.w.I.U.e X.!.2 Y.q.oX}.D.0.8./ Z : Q.S.0XkXE.Q.R.Q.i..XD.I.",
"Q.L.E.I.Q.q.L.w.~.2.I.XXK.K I.o.zXa.9.|.w.L.7.B.l.y K.5 Y.e.#.P.p.;XV.8.d K.L 6 L.n %.a.u.q.`.9.&./ q.w.*.(.F.~.&.^ B s.E.I.Q.q.",
"v Q.K.Q.%.E.Q.L.&.i.I.w.~.`.Q.CXv.zX/.0.r.~.w.~.u.] B D / K.I.R.q.K.i.a.Y.U./ U.P./.Y.0.7.W.w.Y.8..Xg.8.w.8.1 0.l.1 #Xu.B.0.R.u.",
"/.q.Q.w.].f q.Q.L.t.K.w.i.w.q.+.NXb Q.8.L.a.a.a.m ^ ] 0.2.E.r.<.0.K.I.q.U.0.u.8.9.E.I.i.`.V.L./.0.i.w.9.9.~.0.5 h.; M.8.OXu.U.w.",
"w.L.L.K.I.%.Q.E.P.a.0.R.d.L.|.w.( =.^.D q.OX9.P.r.$.U.9.r.Z.E.I.Q.K.&.Q.Q.L.L.a.p.}.7.~.I.' 9.0.r.8.@Xf.L.W.E.& q.S.&.a.R.w.i.N ",
"r.Q.E.Q.Q.I.I.w.R.Q.U.j.d ~.u.U.1 Q.h I a.0.E.W.I.oX0.E.T.oX0.r.~.a.$.w.a.R.R.e.t.t j.E., ` r.Q.~.Q.i.P.^.~.K i.I.W./.t.I.I.i.) ",
"w.L.r.w.w.Q.Q.w.E.i.Q.K.Q.~.t.V.k.0 = _.m.L.0.R.9.q.E.j.E.9.Q.L.r.w.w.Y.Q.<.8.Y.L ` M 8.O }.&.i.9.w.~.u.P.e.^.L.e.P.8.r.e.L.C.E.",
"w.E./.i.e.i.Y.9.9.W.e.(.I.w.~.S #X; b _ L.!.E.8.Z.R.e.w.!.E.#.OXI.8.V.7.G iX8.i.M.B ! 9.Z S /.I.R.r.R.8.~.U.a.qXW.I.-./.0.L.I.v ",
"Q.J E.e.s.e.!.L.I.E.I.q.9.I.y.,.D S.9.Y./.0.Q.E.q.a.I.'.w.r.|.0.I.q.P.P MXwX2Xq.oXb I.w.a.E.7.0.I.7.Q.^.I.4.W.I.r.L.a.R.r.w.K.}.",
"w.).K.e./.N ) r.r.L.w.a.a.7.r.Q.r.Y.8.Q.Q.7.].K.e.m E.q.w.9.g g.g.i 7.q.#.H.Y.1.8.oX~.0.r.}.Q.E.0.~.q.^.P.P.U.r.e.!.e h.`.g R.r.",
"t.R.3 1X6.0 ).q.r.(.,.K.i.R.L.U.w.a./.8.E.i.Q.L.8.w.K.Q.e.~.I.O /.& I.a.3.9.W.w.P w.W.I.0.a.r.w.y.L ~.% e.2./.w.r.L.`.O i.0 F K.",
"I.U.W.X a., M.P i.q.XXR.a.0.E.L.E.i.L.Q.w.I.r.w./.u.E.q.`.B.0.# r.&X&XP.L.@X2Xw.R.*X^.7.Y.K.I.8.% R.1 W.r.`.7./.I.N.E.5 ^.C J Q.",
"q.r.O.w I.) q.R.0.Q.I.V.9.Z.0.w.7XQ.L.L.r.Q.Q.7.K ^./.8.w.r.).e.g.0.T.q.A.aXaXY.;.sXdXw.k u.L.R.OX8 p e.$.K.Q.&XL.8.&.D &.@Xe.&.",
"I.0.U.w.R.~.a.0.L.w.e.Q.  W.|.4.q.w.e.k 8.~.w.Q.I.w.I.a.~.I.e.i.~.yX/.^.r.J C.Q.D.S.i.!.~.r.w.J ) n /.T.P./.oX]./.0.Q.2.Q.i.9./.",
"E.L.r.8.a.I.<.XXr., 8.O e._.@.Q.a.E.0.}.8.L.L.0.s.: T.8.E.L.i.E.BXn.=Xw.8./.2.L.a.: T.q.Q.q.a.R.~.p.r.K.t.p.w.P.K.u.q.Y.8.I.~.j ",
"q.Q.i.a.E.Q.w.E.I.I z @ 0.*.w.R.q.~.r.9.a.! { 0.* w.i.i.K.a.w.a.b mXU.K.a.~ ~ r.7 I.0.a.Y.q.L.qX1.a.Y.t.E./.0.K.I.! D 9.i./.Q.w.",
"/.U.Q.8.L.Q.w.|.O.W ^ e.Z a.Q.q.w.E.r.I.i.U.: u.& w.V.I.r.I.4X7.0.O.p.I.0.P.; !.< 8.N.w.L.a.Y.y.L.K.2.Y.8.q.Y ] [.: N.0.Y.p.P.a.",
"0.Q.I.Q.q.q.g.0.0.Q.&.<.w.w.w.8.w.4X7.L.8.q.W t.K.r.K.0.q.e.;.a.w.2X*Xq.i.K.W 8.9.8.OX0.0.W.e.q.E.0.OX8.w.q.D o i.W N.q.E.=XR.u.",
"r.Y.w.i.E.!.s.w.9.L.S.Q./.P.I.I./.i.l.L.i./.{.w.~.0.9.W.L.w./.7.V.xXzX7.oXt.!.8.E.L.,.Y.&./.q.T w.B.q.Q.q.`.D ` w.8.r.E.q.Y.w.r.",
"q./.:X8.~.a.q.l.o 9.a.8.r.H }.r.I.q.8.I./.8.L.w.L.~.e.w.L.^.P.w.R.D.H.Q.7.a.w.r.E./.w.Q.0.7.E.r.Q.w.Q.q.s.E.B.8.r.E.(.8.~.i.a.OX",
"~.u.a.L.>.r  .+ e.q.E.&.L.$XoXt.Q.Q.w.P.w.w./.I.7.Q.W.P.W.7.M r.L.O.u.l 2.~.Y.K.w.q./.K.Y.j.~.4.8.I.w.7.~.w.w./.0.OXuX+Xr.E.9.k ",
"Y.Y.Q.q.b ` c R / :Xw.~.5.w.8.a.r.L.K.I.r.!.!.e.~.q.!.: P.' W T.~.r.a.N.~.E.I.Q.q.E.7.9.t.e.OXi./.I.q.0.Q.S.L.w.L./.sX{.g.~.e.R.",
"7.E.w.i.!.S u.I.W.0.I.8.Y.$X<Xw.0./.E.r.8.7Xi.).L.0.~._.5 x S S u.K.h.i./.q.r.r.Q.E.r.X E.U.).<.w.w.Q.K.L.2.q.r.K.i.:./.Y.i.Q.w.",
"*.K.o.NX#.r.W.i.8.~.|.y.9.xXxX}.U.a.L.y.&.r.w.r.w.u.F.r.4 q._ 0.r.r.w.I.w.Y.8.Q.# _.w h.Y.Q.Y.r.I.u.0.Z.R.e.E.0.Y.Q.<.j.^.N.R.* ",
"Y.3.uXb.cX| L /.}.5X5X7.Y.A.oX~.w.r.7.Q.).L.C I.i.w.K.F D Y.L.Q.L.Q.r.w.I.a.L.%.j., e 3.,.i.&.D r.P.i E.4.L.Y.I.f.w.r.&X= I & u.",
"R.9.U.A.L.+X-XN.P.5X2XL K.q.I.p.P.K.q.: U.Z W B.I.w.0.q.[.w.w.w.Y.7.w.^.I.i.R.w.V ^ 7.Y.w.i./.c 1 G ' N.P.w.s.L.lX4.p.' 9.= ~ B.",
"7.E.E.2.a.vXxX4.N.B.B.L.X.; q.8.;.d.g.W.O ) ~ ( Y.r.E.u.B.8./.w.8.B.%.~.,.@Xq.8.w.i.Q.w.i.~.) r.* =.m.0.q.a.q.MXc.cXe.W.*.S.9.2.",
"a.#.bXO.P.>X^.i.9.A ( 8.- r.E.2.A.bXG A.X 0.V i.L.Q.Q.L.~.(.Q.I.r.i.K.t.[.L.7.r.l.8.R.q.~.a.L.Z m R.0.#.q.oXK.A MX) 9.r.N.s.9.E.",
"w.2X8XcX4..XY.8.Y.r.1 0.w #.{.0.bX8X*XZ &.| #Xw.w.r.8.L.L.].8.a.E.U.r.r.K.9.|.K.q.T.R.I.0.q.XX0.p.R.R.l.7.#.a.C M.I.Y.g.w.%.Y.I.",
"a.L.H.#.} Q.&.I.0.w.R |.I.w.}.8.&.>Xa.i.8./.V.E.E.0.Q.r.K.8.I.r.Q.9.Y } 3.e L.r.q.R.8./.I.r.E.L.E.9.~.~.: R.h ^ u.t.E.u.Q.C.~.q.",
"w.P.L.~.u.%.L.K.w.<X%XI.w.I.d E.q.q.Q.E.q.u.r.w.L.L.w.r.I.Y.L.L.i.9.S.@ a.1 N.8.I.i.a.0.E.q.I.i.I.8.9.e.%X< = d.A r.Y.i.R.7.l.MX"
};
