/* XPM */
static char *result[] = {
/* columns rows colors chars-per-pixel */
"64 64 218 2 ",
"   c #010200",
".  c #060A02",
"X  c #0A0C02",
"o  c #0D0C07",
"O  c #130E00",
"+  c #0D1305",
"@  c #0C1709",
"#  c #1D1501",
"$  c #131E06",
"%  c #171508",
"&  c #141D09",
"*  c #1C1B15",
"=  c #241B03",
"-  c #291E01",
";  c #201F17",
":  c #162206",
">  c #182607",
",  c #1A2907",
"<  c #17220A",
"1  c #19240B",
"2  c #1D2C0A",
"3  c #1B2E0C",
"4  c #332502",
"5  c #392902",
"6  c #23350A",
"7  c #25390B",
"8  c #293E0C",
"9  c #26241B",
"0  c #28271D",
"q  c #2A3116",
"w  c #283812",
"e  c #363326",
"r  c #473402",
"t  c #4C3903",
"y  c #533E02",
"u  c #2C430D",
"i  c #2F490E",
"p  c #324D0F",
"a  c #34500F",
"s  c #2E4514",
"d  c #314516",
"f  c #334A14",
"g  c #374B1B",
"h  c #364D18",
"j  c #365310",
"k  c #3C5B12",
"l  c #3B5917",
"z  c #3C541B",
"x  c #3F6013",
"c  c #375823",
"v  c #5D4402",
"b  c #5F4804",
"n  c #56530D",
"m  c #415D1C",
"M  c #644A03",
"N  c #66550A",
"B  c #735705",
"V  c #7B5B04",
"C  c #6D5515",
"Z  c #416413",
"A  c #456914",
"S  c #486F16",
"D  c #48641B",
"F  c #4C7417",
"G  c #4E7617",
"H  c #547715",
"J  c #527D19",
"K  c #766208",
"L  c #686612",
"P  c #717B1C",
"I  c #44522D",
"U  c #4A4936",
"Y  c #52543A",
"T  c #645933",
"R  c #476426",
"E  c #486621",
"W  c #4C6B22",
"Q  c #536927",
"!  c #517325",
"~  c #597C27",
"^  c #596637",
"/  c #527830",
"(  c #667C21",
")  c #575440",
"_  c #686F44",
"`  c #7D7A5C",
"'  c #856306",
"]  c #8A6604",
"[  c #936C05",
"{  c #9B7205",
"}  c #957419",
"|  c #A77C06",
" . c #817443",
".. c #55821A",
"X. c #58861A",
"o. c #5B8A1B",
"O. c #5F911C",
"+. c #6B8716",
"@. c #61941D",
"#. c #669C1E",
"$. c #689F1F",
"%. c #69A11F",
"&. c #5D842A",
"*. c #488936",
"=. c #5E8B30",
"-. c #45913B",
";. c #4B963C",
":. c #4D993C",
">. c #549C3C",
",. c #5A9A38",
"<. c #658C2C",
"1. c #7A8B22",
"2. c #66912E",
"3. c #6A952F",
"4. c #749A2F",
"5. c #669936",
"6. c #6C9C33",
"7. c #5CA33D",
"8. c #6BA420",
"9. c #6FA921",
"0. c #71AD22",
"q. c #75B423",
"w. c #78B724",
"e. c #7ABA25",
"r. c #63A63D",
"t. c #6BA639",
"y. c #65A93D",
"u. c #6AAD3E",
"i. c #74A434",
"p. c #78A937",
"a. c #7AAC36",
"s. c #72AD3C",
"d. c #6EB13E",
"f. c #74B33E",
"g. c #7CB43C",
"h. c #7CBA3E",
"j. c #7EC126",
"k. c #7FAE41",
"l. c #7BB842",
"z. c #8B9916",
"x. c #AF8106",
"c. c #B28305",
"v. c #BD8B06",
"b. c #B7990C",
"n. c #9AA817",
"m. c #9F8026",
"M. c #B29132",
"N. c #83AC32",
"B. c #82B639",
"V. c #87B738",
"C. c #83BC3D",
"Z. c #C28F06",
"A. c #C59106",
"S. c #C99406",
"D. c #CA9609",
"F. c #CB9810",
"G. c #CE9D1C",
"H. c #D19A10",
"J. c #D1A730",
"K. c #85C13E",
"L. c #8CC63F",
"P. c #8EC83F",
"I. c #90CA3F",
"U. c #9D9B56",
"Y. c #85BE40",
"T. c #87BB46",
"R. c #8DAD5D",
"E. c #908E6C",
"W. c #D0AF48",
"Q. c #DCBC54",
"!. c #E0BE56",
"~. c #8DC640",
"^. c #8BC345",
"/. c #8EC840",
"(. c #90C741",
"). c #92C943",
"_. c #98CA47",
"`. c #91C64B",
"'. c #94CA4C",
"]. c #9BCC4A",
"[. c #93C652",
"{. c #98CB54",
"}. c #9DCE5B",
"|. c #A1CE4D",
" X c #A4CE50",
".X c #A2D15D",
"XX c #9DC963",
"oX c #A3CD6B",
"OX c #A7D265",
"+X c #ABD46B",
"@X c #B4CA78",
"#X c #AFD673",
"$X c #B3D577",
"%X c #E5CB72",
"&X c #EAD177",
"*X c #B2AE84",
"=X c #B5B288",
"-X c #BFBC90",
";X c #C5DD84",
":X c #CECA99",
">X c #D4D09E",
",X c #F0DC8D",
"<X c #CAE385",
"1X c #D1E589",
"2X c #DBE88C",
"3X c #E3ED8C",
"4X c #D0CEA3",
"5X c #D9D5A4",
"6X c #E4DEA6",
"7X c #EBE5AB",
"8X c #F6E9A4",
"9X c #F9ECA9",
"0X c #F0ECB6",
"qX c #F6F2B7",
"wX c #FAF1B5",
"eX c #F6F2BA",
"rX c #FEF6BA",
"tX c #FBF9C2",
/* pixels */
"L.P.L.P././.P./.L.L.P.L.P.L.L.g.~.L.~.L./.L.~.L.L.~.L.L.~.W < < < < < < & &.~.L.L.L.L.L.P.L.L.L./.I.L.L.C.C.L.L.).P.L./.L.]././.",
"L.L.P.L././.~.C.P.L.L.L.L.L.L.6.2.2.a.L./.L./. X~./.i.2.2.D 6 6 6 6 6 6 6 W 2.2.p.Y.K.K.7.L.L.L.L.L./.L.L.P.L.P.P.P.P./.L.).).P.",
"|.L.L.P.f.C.u.y.L.L.L./.|.~.L.8 . . ! L.~.L.L./.~.~.d . . Z w.w.w.w.w.w.e.p . . m f.r.>.u.K.I.L.L.(.L.L.L.L.L.L./.~.L./.L.L.L.P.",
"_.P.L.L.f.;.>.h.L.L./.P.).6.d S J J x z ,.h.L.L.6.s S J J #.e.e.e.e.e.w.e.@.J J Z f *.f.h.K.I.L.~ g d d d a.L.L.L.C.L.7.h.L.P.L.",
"L.P.P.L.C.r.K.K.P.P.L.L.a.~ $ @.e.e.j @ =.C.L.a.&.: X.e.e.e.e.e.e.e.e.e.e.e.e.e.G > &.i.i.C.~.i.D & $ $ : <.g.L.h.-.y.>.K.P././.",
"P.P.).).~.~.L.P.P.P.P.V.2 d q.w.e.e.j $ 5.I.T.w 8 q.w.w.e.e.e.e.e.e.e.e.e.e.e.e.w.%.6 @ $ =.p.$ A 0.0.0.9.6 z /.^.k.s.h.L.L././.",
"L.L.].).~.~.P.L.L.P.P.B.$ 7 e.J G e.j & a.p.Q Z S e.e.e.e.e.e.e.e.e.e.e.e.e.e.e.e.q.Z k k m z   Z e.e.w.w., d ~.L.K.L.(.L.P.L.L.",
"P.L.P.L.~.~./.].L.P.P.B.: u K.6 2 w.j 1 i.! @ #.e.e.e.e.e.e.e.w.w.e.e.e.e.e.e.e.e.e.e.e.e.6     Z e.w.w.w., d ~.L.L.L.~.P.L.P.L.",
"L.L.P.L./.K./.].P./.L.C.$ u e.8.%.e.%.@.6 k 8.q.e.e.e.e.e.e.0.6 $ > @.w.e.e.e.e.w.q.7 : $ .     Z q.2 j q., d L.L./.L./. X/.P.h.",
"P.L.f.K.d.7./././.L.I.C.d f O.o.o.o.%.q.u A e.e.e.e.e.e.e.%.X.u 6 6 G @.e.w.e.e.%.o.u >         p o.X 6 o.$ d (.L./.P./././.L.L.",
"L.L.l.;.7.l.K./.P.I.7.h.-./ . .   . F e.e.e.e.e.e.e.e.e.e.k @ %.e.w.6 : j.e.e.e.A X #...                .   d _.L.P.h./.d.u.P.L.",
"L.L.C.7.C.h.L.P./.K.f.>.r.p.&.&.&.<.m p 0.e.e.e.e.e.e.e.e.#.X.g.e.e.o.o.e.e.e.e.%...q.%.J ......7       . E 6.].L.P.7.u.-.K.~.L.",
"L.P.L.L.L.P./.L.L.L.h.h.L.K.L.L.L.OX^ @ @.9.e.e.e.e.e.e.e.e.e.e.e.w.e.e.w.e.e.e.e.e.e.e.e.e.e.e.j   : < & i.L.{.P.K.f.7.g.K.L.L.",
"/./.~.L.P./.P._._.P.P.L.L.L.L.P.L.@X^   X k j.e.e.e.e.e.e.e.e.e.e.e.e.e.w.e.e.e.e.e.e.w.e.e.e.e.j . i.g.g.L.#X3X}.P.K.L.L.L.L.P.",
"].).L.L.L.P.L.).).L.L.P.L.L.L.g.~.~.c X j ..e.e.e.e.e.e.e.e.e.e.e.w.G F e.e.e.e.e.e.e.%.A %.w.e.j . B.L.C.C.[.$X).L.L.L.L.P.L.f.",
"/.L.P.L.P.P.P.P.L.P.L.L.h.y.f.>.C.B.m > 9.e.e.e.e.e.e.e.e.e.e.e.e.w.6 : j.w.e.e.e.e.e.X.  ..w.e.j . B.L.~.~.~.L.L.P.L.L.h.y.f.:.",
"L.P.L.f.L.L.L.L.~.L.(.L.L.;.7.y.6.2 S %.w.e.e.e.e.e.e.e.e.e.e.e.e.e.3 > j.w.e.w.w.w.e...  ..w.e.j . t./.L.P.L.L.P.P.I.L.L.;.r.y.",
"f.d.r.r.L.L.L.C.L.r.h.L.K.s.C.3.! X S e.e.e.e.e.e.e.e.e.e.e.e.e.e.e.j a e.e.e.e.%.o.q.O.7 O.e.j.j . t.L.P.L.L.P./.P.K.L.C.s.C.L.",
"K.;.r.f.^.+XK.7.u.;.C.L.L.L.L.w     S e.e.e.e.e.e.e.e.e.e.e.e.e.e.e.e.j.w.e.e.j.A . #.j.j.e.e.e.j   p.~.P.L.].).~.P.h.L.L.L.~.~.",
"C.f.K.K.$X3XoXy.y.f.K.L.L.3.s B B . S e.e.e.e.e.e.e.e.j.e.e.e.e.e.e.w.e.e.w.e.e.%...i x w.e.e.e.j . g.L.L.).).(.P.L.L.L.P.L.L.P.",
"P.L.P./.^.oX~.C.K.P.I.(.R.!   ' [ - H e.e.e.e.e.e.e.e.e.e.e.e.e.e.e.%.%.e.e.e.e.w.q.: 3 %.q.w.e.j . 3.g.L.~.P.L.L./.L.~.L.).L.P.",
"L.L.P./.).}.P./.).K.K.oXe o   O 5 c.n.e.e.e.e.e.e.e.e.e.e.e.e.e.e.q.7 6 j.j.e.e.e.q.: . + X.w.e.j   + z L.L./.I.P./.P./.L.|.).L.",
"g./.).L.#X3XOX~.P.C.2.D C M M M B ] z.e.e.e.e.e.e.e.e.e.e.e.e.e.w.e.F x x O.w.x x x + $ x %.w.w.o.k . f L.L.I.L.P.L.L.L.L.L.P.L.",
"~.+X<X'.{.$X^.{.{.~.E O c.S.A.D.c.v +.e.e.B.e.e.e.e.e.e.e.e.e.e.e.e.e.%.X G 0.$ X X . u e.e.w.q.q.q.+ f L.~.~.f.~.>.h.L.P.P.L.P.",
"L.+X;X`.L.C.^.1X1X^.D O c.[ = } | # F e.e.e.e.e.e.e.e.e.e.e.e.e.e.e.e.q.#.0.w.%.%.#.#.%.e.e.8.: F q.+ h L.L.L.>.7.;.^.L.P./././.",
"L.L.l.C.d.7./.XXXX~.E X ' C U M.M.t Z X.X.#.e.e.e.e.w.q.X.%.e.e.e.e.e.w.w.e.e.w.e.w.w.e.e.e.%.  Z q.X h L.I.^.u.d.Y.K./.P.P././.",
"/.~.l.-.>.l.K.L.~.'._   . ) tXrX8XH.y     a j.e.e.e.w.8.X x j.e.e.e.e.e.e.e.e.e.e.e.e.j.e.e.%.  Z q.X z |.L.L.~././.L.L.P.P././.",
"P.~.Y.7.C.K./.L./.OX_ + E.:XrXrXwX,XT     j e.e.e.e.e.#.. : 6 6 7 7 #.e.e.w.e.w.w.q.a 6 7 7 6   Z q.X h I.L.(.L./.P.L.~.h.f.P.L.",
"L.P.L.L.L.L.L.P.L.K.R o 5XrXrXrXrXrX` 9 . f e.e.e.e.9.o.X + : $ $ : ..%.%.%.%.%.%.w.7 +   + $ $ Z #.. g '.L.~.I.P.).>.l.-.h.P.P.",
"L.L.).P.L.P.)./.P.L.D o 5XrXrXrXrXrXqX4X9 a e.e.e.e.u .   k w.q.q.q.6 . . . . X k w.w...  J q.q.k .   Y 2X'.C.K.P.K.f.>.r.C.~.P.",
"L.L.].).P.P.|.).K.W ^ E.7XrXrXrXrXrXrX5X; f e.e.e.e.J Z x O.e.e.e.e.G x x x x x o.e.e.%.Z %.w.e.j     I #X^.K.L.L.L.Y.T.L.L.L.L.",
"P.L.L.L.L.P.L./.B.@ E.eXrXrXrXrXrXrXwX6Xe j q.e.e.e.e.e.e.e.e.e.e.e.e.e.j.e.j.j.e.w.e.e.e.e.w.q.p   @ l L.I.P.OXOXL.).).L.L./.L.",
"P.L.L.P.P.L.P.(.C.+ ` tXrXrXrXrXrXrXrXwX:XE., 3.e.e.e.e.e.e.e.e.e.e.e.e.e.e.e.e.e.e.e.e.e.e.%.: X . R.T.^././.1X1X^.^././.~.P.L.",
"L.P.L.C.L.d.d.~.C.@ ` rXrXrXrXrXrXrXrXrXwX*XY ~ o.e.e.e.e.e.e.w.w.e.w.e.e.e.e.e.e.e.w.e.w.O.S     o @X[.T.^.~.[.[./././././.~.P.",
"L.L.I.>.u.-.~.~.V.@ ` rXrXrXrXrXrXrXrXrXrXrX0Xe 6 e.e.e.e.w.e.e.e.e.e.e.e.e.w.e.e.e.e.w.w.8 . .     5.^.7.j.L.L./././.`.L.P.L.P.",
"L.I.Y.f.7.f.C.P.C.+ ` rXrXrXrXrXrXrXrXwXrXrXrXm.K 7 6 6 6 6 6 6 6 6 6 6 6 6 6 6 6 6 6 6 6 B [ [ r o *.r.7.K.P./.~./.L.j.K.L.P.L.",
"L.L.L.C.K.~.L.L.V.+ ` rXrXrXrXrXrXrXrXwX8X8X8XG.{       # O     . # # $ 9 9 9 0 0 0 9 * . ] S.S.v . 5.l.Y.~.^./.^.u.K.>.j./././.",
").P.L.I./.L.L.P.V.@  .tXrXrXrXrXrXrXrX9XG.S.S.S.{     = Z.M     t S.A.J.eXeXeXeXqXeXeX*X  ] S.S.v . B.^.~.~./.^.K.>.7.7.^.`././.",
"P.~.P./.P.L.~.~.l.@ ` tXrXrXrXrXrXrXrX8XG.{ M c.{   r V S.M X M M M W.%XrXrXrXrXrXrXrX*X  [ S.S.v   m &.L.L./.`.K.u.l.L.K./././.",
"C.P.L.P.).'.~.~.T.*  .tXrXrXrXrXrXrXrX9XG.' O | { X ] v.S.M O | ] ; -XrXrXrXrXrXrXrXrX*X  ] S.S.v     g L./.L.j.l./././.K.K.~./.",
"C.L.L.P.L.].P.L.f.+ ` rXrXrXrXrXrXrXrX8XG.Z.c.S.Z.c.t 5 D.M O | J.5X0XrXrXrXrXrXrXrXrX=X  [ S.S.v     z ~.7.Y.:.K.L.L.P.K.K.P.L.",
"L.L.L.P.P.L.L.P.>.+ ` rXrXrXrXrXrXrXrX7X} ' ' ' } Q. .T J.U.) W.%XtXrXrXrXrXrXrXrXrXrX=X  ] S.S.L u u l &.5.>.>.K.L.L././.P.L.P.",
"L.P.L.L.).I.).K.s.+ ` eXrXrXrXrXrXrXwX5X9 .     U 0XwXrXrXrXrXrXrXwXrXrXrXrXrXrXrXrXrX=Xo ] S.S.n.e.e.G . =.g.~./.L.P./.L.P.P.L.",
"P.L.P.P.C.K.P.P.C.2.^ Y 6XrXeXrXrXrXE.I ..X.o.o.J U -XrXrXrXrXrXrXrXrXrXrXrXrXrXrXrXwX7X*XT t S.n.e.w.8.o.d E L.L.L.L./.~.L.L.P.",
"P.L.L.P.K.L.L.L./.L.E o =X>X>X>X>X>X_ 3 8.w.e.w.@.$ E.>XrXrXrXrXrXrXrXrXrXrXrXrXrXrXrXrXqXU # S.z.#.w.w.w., d ~.L.h.L.h.L.h.7.L.",
"~.L.P.L.L.I.~./.L.L.E               S j.w.e.e.w.e.K.u q 7XrXtXrXrXrXrXtXtXrXrXrXrXrXtXrXeXU # D.M . 9.e.w., d L.L.L.I.d.7.;.f.K.",
"L.L.L.P.L./.~././.L.E     : A A A Z @.e.w.e.e.e.e.e.8 9 Q.Q.Q.!.!.!.!.!.!.!.!.!.!.!.!.!.!.} B v - . 9.e.w., d _.^.I.L.C.:.h.C.L.",
"C.C.P.L.P./.~.P.~.L.E   X u e.e.e.e.e.e.e.e.e.e.e.e.8 % v.F.F.F.F.F.F.F.F.F.F.F.F.F.F.F.F.D.| X X + 9.e.w., d ].L.L..X#XK.L.L.L.",
"L.L.L.L.L.L.~.L. X).c X O.9.e.e.e.e.e.e.e.e.e.e.e.j.u 9 6X8X9X9X9X9X9X9X9X9X9X9X9X9X9X9X9XJ.b.9.%.%.e.e.q., d (.L.B.;X2X[.L.L.L.",
"L.L.L.P.L.~.K./.L.L.l . 8.e.e.e.e.e.e.e.e.%.G 0.%.J n n %X&X&X&X&X&X&X&X&X&X&X&X&X&X&X&X&Xm.V G $.e.e.$.S Q / _.L.Y.`.{.L.L.L.L.",
"L.L.L.u.K.7.f.L.L.L.E + %.w.e.e.e.e.e.e.e.F X @.X.  ' Z.Z.S.Z.Z.A.A.A.A.S.A.A.A.A.A.A.A.A.5     Z q.w.F . R.~.L.~././.L.P.L.L.L.",
"L.L.L.y.>.;.~.L..X;Xk.=.u k j.e.e.e.e.e.e.8.o.u :   = 4 4 4 4 4 4 5 M B V V B 5 4 4 4 4 4 O     $ 6 2 l 3.C.l.L.g.7.P.L.L.P.L.P.",
"L.P.K.h.u.C.~.L.@X2X{.T.: 6 3.0.e.e.e.e.e.w.w., . > : $             r M y y r             @ & < 1 1 > R L.I.u.r.;.h.{.+XK.C.L.P.",
"L.L.L.L.L.).~.L.L.`.+X$X&     O.e.e.e.e.e.w.w.> 6 e.e.%.X           r v M -             . R >.^.L.I.{.1X}.~.Y.>.h.h.;X2X[.L.P.L.",
"P.L.P.P.L.L.L.).$X_.$X;X*.! c k f i p p p p j A J e.w.%.X       2 ~ n y = X           < W t.K.L.L.L.oX2XOXL.K.~.L./.`.XXL.L.L.L.",
"L.P.K.K._.).P..X3X$X~.^.L.~.7.3 . .         X #.e.e.q.#..     . g V.L t               w L.L.P.P.L.L.f.T.L.L.L.C.~.L.~.L.L.P.L.P.",
"P./.K.K._.)./.~.}.^.L.K.P.L.l.s.g.B.f     p 0.e.e.j.u .     + 6.V.C.n t               w /./.L.K.7.h.>.C.P.~.L.C./.#XOX/.P.L.P.L.",
"_.).P.L.L.L.L./.L.~.K.C.L.+X2X.XI.K.! d . 6 G 0.w.e.u     2 z g.~.V.L y             w ! P.P.L.L.7.7.r.K.L.L.P.L.'.2X<X^.L.P./.L.",
").)./.L.L.h.L.u.f./.P.~.K.}.;X[.I.P.K.a.$ . X @.e.e.7 .   E L.L.~.C.L r           o i.K.L./.l.K.f.C.L.L././.~.).P.[.`.L.L./././.",
"P.L.L./.~.7.u.;.Y.L.L.P.~.~.~.L.f.h.1.L t M { b.b.b.| ] r 1.L.u.~.K.L y           . i.l.C.u.y.L.L.~./.L.P./.~.L.P.L.~.~.h.f.L./.",
"L.K.B./.L.s.7.f.K.L.P.L.L.L.7.h.-.B.P M B [ S.S.A.x.c.| b ( y.,.L.L.L y - - - O O # 1.s.;.>.g.K.).).~.L.L.~.L.I.~.I.7.f.-.l.P.P.",
"P.L.L.~.L.K.~.~.~.P.L.P.L.K.y.7.r.C.P M Z.Z.S.S.x.v b b M Q y.u.C.C.L M S.Z.v.M M y v L r.K.K.L.).).L.L.I.K.C.L./.K.f.>.y.C.L.P.",
"L.P.L.P.~./.L.P.P.L.P.P.L.L.h.C.L.L.N.1.] ' ] ' V v b v y N P V.I.L.4.z.] ' ' M v v M N P N.L.P.L.L.L.P.L.L.K.L./.L.C.h.L.L.L.P.",
"L.L.P.L.L./././.L.P.).B.C.L.L.L.L.L.K.V.N b v v v v b v M M N N.L.L.L.N.v v v v v M y y M N.L.P.L.L.P.L.P.L.I.L././.L.L.L.P.L.L."
};
