/* XPM */
static char *_f74c9d4c17c4eb9d0140c39969f02fdzvbwjT3yj1ONJjHM[] = {
/* columns rows colors chars-per-pixel */
"64 64 126 2 ",
"   c #4A2F28",
".  c #4C3127",
"X  c #4D332D",
"o  c #51352D",
"O  c #54382D",
"+  c #4D3530",
"@  c #513631",
"#  c #553930",
"$  c #5C3E36",
"%  c #5B3F39",
"&  c #603F36",
"*  c #5E4136",
"=  c #5D4139",
"-  c #614136",
";  c #614339",
":  c #67493F",
">  c #6C4B3F",
",  c #664941",
"<  c #6D4D42",
"1  c #704E43",
"2  c #6E5046",
"3  c #6E5048",
"4  c #755346",
"5  c #7B5646",
"6  c #7A5646",
"7  c #795446",
"8  c #7C5747",
"9  c #795446",
"0  c #795847",
"q  c #705248",
"w  c #745248",
"e  c #755349",
"r  c #745449",
"t  c #765448",
"y  c #775549",
"u  c #77554B",
"i  c #77574A",
"p  c #76564B",
"a  c #77574C",
"s  c #765549",
"d  c #785448",
"f  c #795549",
"g  c #7B5548",
"h  c #7A5648",
"j  c #7B5749",
"k  c #7B554A",
"l  c #78564A",
"z  c #79574B",
"x  c #7A564A",
"c  c #7B574B",
"v  c #7C5649",
"b  c #78564C",
"n  c #79574D",
"m  c #7A5649",
"M  c #76584E",
"N  c #7C584A",
"B  c #78584D",
"V  c #7A584C",
"C  c #79594E",
"Z  c #7A584E",
"A  c #7A5A4F",
"S  c #7A584D",
"D  c #7C5C51",
"F  c #876B5F",
"G  c #89695E",
"H  c #886A5F",
"J  c #8A6A5F",
"K  c #8C6C5F",
"L  c #8A6B5E",
"P  c #876B60",
"I  c #866961",
"U  c #896B60",
"Y  c #8B6B60",
"T  c #886C61",
"R  c #896D61",
"E  c #8A6C61",
"W  c #8B6E60",
"Q  c #896D62",
"!  c #8A6C62",
"~  c #8B6D62",
"^  c #8B6D63",
"/  c #8A6E63",
"(  c #8B6F63",
")  c #8C6C61",
"_  c #8C6F61",
"`  c #8E6E61",
"'  c #8D6D62",
"]  c #8C6E63",
"[  c #8F6F62",
"{  c #8D6F64",
"}  c #8D6F65",
"|  c #8F6F64",
" . c #8C6D62",
".. c #8C7064",
"X. c #8C7065",
"o. c #8E7065",
"O. c #8D7166",
"+. c #8E7066",
"@. c #8F7166",
"#. c #8E7267",
"$. c #8E7065",
"%. c #8F7368",
"&. c #8E7068",
"*. c #907267",
"=. c #907164",
"-. c #907268",
";. c #9D8176",
":. c #9D857B",
">. c #9E867C",
",. c #9F877D",
"<. c #9E857E",
"1. c #9E867E",
"2. c #9F897E",
"3. c #A08277",
"4. c #A08479",
"5. c #A2867B",
"6. c #A0857E",
"7. c #A1867C",
"8. c #A1897F",
"9. c #A68A7F",
"0. c #A5897E",
"q. c #9D8980",
"w. c #A08780",
"e. c #A38881",
"r. c #A18B80",
"t. c #A28A81",
/* pixels */
"h 9 9 h > < < < < < < < * = = * 9 9 4 t > < < < < < < < < < < < < : < < X X + X 9 7 4 h 5.t.2.1.< < < < < < < < = $ $ = $ = = $ ",
"9 9 9 h > < < < < < < < $ $ = * N h h h > < < < < < < < < < < < < < < < o o @ X 4 v h t 5.1.:.w.< < < < < < < < = $ = = = = = = ",
"9 h h h > > < < < < < < * * = = 4 4 4 t < < < < < < < < < < < < < < 2 < o   X + r h h e 0.8.1.t.< < < < < < < < = = = = $ $ $ $ ",
"4 t t 4 1 < < < < < < : ; * $ * B B t t < < < < < < < < < < < < < < 2 , O . X X r h h B ;.1.1.7.< < < < < < < < = = = * = ; * * ",
"< < < 1 4 t t 4 t h h D H { o.o.$ $ $ - : < < < $ $ $ $ $ $ $ $ $ $ $ = , < < < < < > < ; = = = < < < < ; * ; * $ = $ * < < < < ",
"< < > > h h h 9 h h 4 t ] o.E E ; ; * * < < < < * * * * * * * * = = $ * < 2 < < < > 1 q # $ = $ < < q < * $ $ $ $ = $ * < 2 < < ",
"< < < > h 9 9 9 9 h 4 t ] o.E o.$ $ $ $ < < < < = = = = = = = = $ = = $ < : < < 2 < < < $ = = $ < < < < * $ = = = = $ * < < < < ",
"< < < > h 9 9 h 4 N t t ] ] U o.= = = $ < < < < = = = = = = = = = = = $ < < < < < < 1 < * $ = = < < < < * $ = $ $ = * * < < < < ",
"] { E o.< < < < = = = = = = = = K ] ] E ; * * = E E ] E < < < < < < < < * * * = < < < < . . + X < < < < $ * = $ $ = = = X X X + ",
"E ] E { < < < < = = = = = = = = E ] o.o.$ $ $ = E o.{ E < < < < < < < < * = * = 1 < < < o o + X < < < < $ * $ = = = = = X X X X ",
"{ o.o.o.< < < < = = = = = = = = { E E o.* = = * E ] ] U < < < < < < < < $ * = = < < 2 < o . X X < < < < * $ = = $ $ $ * X o X X ",
"E E E U < < < < = = = = = = = = E o.%.P ; # $ - { { E H q < < < < q < 2 $ * * * < 2 3 < # . . o 2 2 < , ; = $ $ * = = ; . . . X ",
"< q < 2 $ * * * = = = = = = = = o . . O q B B t < < < q : < < < E E E U < < < < $ $ $ ; : < < < . . . o $ = = = E E E E 2 2 < < ",
"< < < < $ * = = = = = = = = = = X X o . a q h h < < < < < < < < { o.o.o.< < < < = = $ * < < < < @ X X o % = = $ o.o.o.{ < < < < ",
"< < < < * = * = = = = = = = = = + X X . B t v 9 < < < < < < < < E ] E { < < < < $ = = * < : < < X X X X = = = = E E E { < < < < ",
"< < < < * * * = = = = = = = = = + X o o t h v 7 < < < < < < < < ] { E o.< < < < $ = = $ < < > < X X X X = % = = E o.E o.< < < < ",
"$ = = $ = = = = = % = = . X + X h 7 h h > < < < < < < < $ = = = = = $ * o.o.] ] < < < < < < < < < < < < t 9 9 9 t t h t h h h h ",
"= = = $ = = $ $ = % $ = o @ + X 7 7 h h > < < < < < < < $ $ $ $ = = ; * o.E o.o.< < < < < < < < < < < < 4 h 9 9 9 9 9 9 9 9 9 9 ",
"= = $ = = = = = $ % = = X . X o h h 4 h < < < : < < < < * * = = = $ * $ o.E o.U < < < < < < < < < < < 1 4 h t h 5 9 9 5 9 9 9 7 ",
"= $ = = $ % = % = = = $ O o . o h t t B : < < < > > < < $ * * * = $ * ; E ] *.] < < < < < < < < : < < q 1 t t n 4 4 9 B q t n B ",
"= = = $ @ X o o X . . o , < < < K ] { H ; $ $ * h h h B < < < < < < < : 2 < < < $ $ $ $ $ $ $ $ h h t e ; - $ $ q < < < o o X . ",
"= $ = $ X . X X + + . o < 2 < < U { o.E ; $ = ; 9 t t t : < < < < 2 < q < < < q * * * * * * * * 4 h 4 e - * $ = < < < < X X + + ",
"= $ = = o X + + X + o o < < : < { ] E E * = $ $ h 9 t h > < < < < < < < < < < < = = = = = = = = 9 h h n $ = $ = < < < < X X + + ",
"= $ = = X X + X + + . o < < < 1 E { ( ( * = = = h 9 t t > < < < < < < < < < 1 < = = = = = = = = 7 9 4 t $ = % = > > < < o o X + ",
"q.1.t.0.r 4 h 9 < < 2 : ; % = * E E E ] t h h 9 < < < < < < < < < < < < < < < < $ = = = = = % = < < < > t 4 9 h 9 9 9 4 - $ $ = ",
"t.1.7.5.a h h 9 < < < : ; % = $ E E E ] 4 9 7 9 < < < < < < < < < < < < < < < < = = $ $ = = $ $ < < < > h 9 9 9 9 h h t - $ $ = ",
"1.7.7.5.a 4 t h < < < < = = = * E E ] ] h h h N < < < < < < < < < < < < < < < < = = $ = = ; = = < < > > t h h h 4 9 h 4 - $ * * ",
"0.0.0.3.B t t t < < < < % % = $ o.o.] K h t 4 4 < < < < < < < < < < < < < < < < = = = = $ = = = 1 < < 1 4 t t t B h h q ; - $ $ ",
"t q t B : < < < < < < < @ @ o o < < < q : 1 1 1 < < < < < < < < < < < < ; * ; * = = = $ @ X o o t t t 4 1 < < 1 : : < 1 q 4 h h ",
"h h t h > < < < < < < < . X X X < < < < < < < < < < < < < < < < < < < < * $ $ $ = $ ; $ X . X X h h h t > > < < q < 1 1 t t h 9 ",
"7 h 9 t > < < < < < < < X + + X < < < < < < < < < < < < < < < < < : < < * $ = = = $ = = o . @ + 9 9 9 h > < < < < < < > t 9 h 9 ",
"9 9 4 4 1 q < < < < > < . @ + X < < < < < < < < < < < < < < < < < : < < * $ = $ = $ = % X X + X h 9 4 t > < < < < < < > t 4 9 9 ",
"< < < < < < < < * = = = < > < < = = = = = = = = = = = = = = = $ = = $ = = = = $ + + X . a h 9 9 < < < < < < < < = = $ ; < < < > ",
"< < < < < < < < * = = = < < < 1 = = = = = = = = = = = = $ = = $ $ $ $ $ $ = $ = X X @ . a 4 9 h < < < < < < < < = = $ ; < < < < ",
"< < < < < < < < * = = $ < > > < * * * * * * * * $ $ $ = $ = = = = = = = * $ $ * @ X o . B t h 4 < < < < < < < < $ = $ ; < < < < ",
"< < < 2 < 2 2 2 * = = = < > < < $ $ $ $ $ $ $ $ $ $ * * $ $ * $ $ $ $ # ; * - - o . o o q t h t < < < < < < < < $ = $ ; : < < < ",
"< < < < o . . . * % = ; q r r h < < < < < < < < t t t t < < < < = = ; ; t t t t t B n t q < > 1 < < < < < < < < = = $ $ ; ; * * ",
"< < < < o o X X = % = ; r 9 h h < < < < < < < < 9 t h 4 < < < < $ $ $ $ t t t 9 4 h t h : < : < < < < < < < < < = = $ $ = * $ $ ",
"< < < < . X X X = = = ; q r 9 7 < < < < < < < < 4 4 9 4 < > < < = = * $ B t 9 9 9 9 4 h > < < < < < < < < < < < $ = $ $ = = = = ",
"< < < < . X X X = % % ; 4 9 9 9 < < < < < < < < 9 9 h 9 < > < < $ = * $ h 9 9 9 9 9 h h > < < < < < < < < < < < $ = $ $ = = $ = ",
"X + X X < 1 > < + X X o E { { ] 9 4 9 h 9 h h 9 < < < > t 9 9 9 = = $ = = = $ = < < < < t h 9 9 < < < < * $ = $ < > < < X X + + ",
"X X + X < > < < X X . . &.{ E { h 9 9 h 9 9 9 4 < < < > t 9 9 9 $ = ; = = $ = = < < < < 4 t 9 4 < < < < * $ = = < < : < . X X X ",
"@ X + X < < 1 < X @ o . ( E E o.9 4 9 h 9 h h h < < < > t 9 9 9 = $ $ $ = $ = $ < < < < t h t h < < 2 < * $ = $ < q < < . o . @ ",
"o X + # : > 1 < o . . # P %.%.( 9 4 9 h 4 4 t t < < < > t 9 9 9 * $ * ; $ = = = < < < < t t t a < < < < * $ = $ < < < : o o . o ",
"E o.( F V 9 4 t < < < , o . . o h 9 h t 1 < < < < < < > t 9 9 9 E o.E U = = $ = * * $ $ * * $ - ; * ; = * = = = = * * ; q r M t ",
"L o.E o.4 6 4 0 < < : < . X X X h 9 h 4 < > < < < < < > t 9 9 9 ] o.{ o.$ = $ ; = ; * $ * * $ $ * $ $ $ = = = = = $ * $ a r h 4 ",
"] { E { 9 5 9 r 1 < < 3 . X + X 9 9 h t < < < < < < < > t 9 9 r ] ] U { $ = $ $ $ = = $ = = = = = = = $ = = $ $ = = ; $ a 4 9 h ",
"] E %.{ t 4 h h < < < < X + X + 9 9 h 4 < < < < < < < > t r 9 9 ] ] ] { $ $ = = $ = = $ = $ $ = $ = = $ = = $ = = = * $ t r 4 9 ",
"9 4 9 9 9 9 h 9 9 7 h n $ = ; = = = $ = = = = * < < < < < < : < 9 h t h < < < < = = = = o X + + = = = = t n t t 9 h h q ; $ * = ",
"h 9 9 9 9 9 9 4 h 9 h n $ $ = % $ $ $ $ $ = $ = < < < < < 2 < < 9 9 9 h < < < < = = $ = X X X X = = * * e h 4 r h 4 h t * * = * ",
"9 4 9 h 9 h h h t t n t ; $ = = = = = = * * * * > < < < < < < < 7 9 9 h > > < > % ; = = X o . @ $ * * * h h 9 9 h h B B $ $ = = ",
"9 4 9 h 4 4 h t B a a q ; = = $ $ $ $ # ; * * - : < 1 q < < < 3 h h h B < < < < % = % # o o . o $ = * * e h t t 4 e t q ; * * * ",
"h 9 h h 1 < < < . . o O $ $ = = = = ; ; t t t t r 9 h 1 O . . . $ $ $ $ . X X . @ X o o r r B t X + X . = = $ * ; ; ; ; U E E ( ",
"h 9 h 4 < > < < X X X o * = = $ $ $ $ $ t t h 9 r 9 c t o X + @ = = = = X X + + + X X . M t h 4 + + + X = % % = * * $ $ -.o.E { ",
"9 9 h h 1 < < < X X X X = = = = = = * $ n h 9 9 9 9 c a o . X X $ $ % = X X X X + + # o B 4 h 9 X X X X = % = = * = = * o.E E o.",
"9 9 v t 1 < < < + + X X = = $ = $ = * $ h 9 7 9 9 7 h n X X + + $ $ = = X X X X + + X . a h 9 9 . o X . = $ $ * = = * ; E o.] ] ",
"< < < < $ = = % < < < < < < < < E E E E < < < < < : < < * $ = $ + X X X + + + X ] ] ] ] < < < < < < < : B 9 9 9 < < < < < < < < ",
"< < < < = = = = 1 < < < < < < < E o.{ E < < < < < < < < * $ = = X X X + X + + + ] o.{ E < < < < < < < > t 4 9 9 < < < < < < < < ",
"< < < < $ = = % < < < < < < < < E ] ] U q < < 1 < < q < ; $ = = X X + X X X X X U E E H < < < < q < < < h B h 4 < < < < < < < q ",
"< < < < = = = = < < 1 1 < < < < o.{ ] H q < < < < < < : = $ = $ X X X X o o o o =.=.] H 4 1 < < < < < q q h h 9 < < < < : < < < ",
"$ $ $ $ X X X X h h t 4 < < < < < < < q : < < < * * ; = $ $ = = = = $ = , < < < 4 4 h h 4 4 h h ] { { U q > > < < < < < ; * ; * ",
"* = = = X X X + h h h t 1 < < < < < < < < < < < $ $ $ $ = = = = % = $ * < 2 < < v h h v 7 h h 7 U E { ] < < < 1 < < < < * $ $ $ ",
"= $ $ = X X + + 7 4 9 4 < < < < < < < < < < < < = = = = = = $ = = = $ * < < : < 9 7 7 9 9 9 9 9 o.E E o.< q < < < < < < * $ = = ",
"= = = = X + + + 9 9 h h < < < < < < < < < < < < $ = = = = $ $ = $ ; $ * < < > 1 h h h r r r r r E E E *.: < < < < < < < * $ = $ "
};
